<?xml version="1.0" encoding="UTF-8"?>
<svg width="800px" height="1280px" viewBox="0 0 800 1280" version="1.1" xmlns="http://www.w3.org/2000/svg" xmlns:xlink="http://www.w3.org/1999/xlink">
    <!-- Generator: Sketch 49.2 (51160) - http://www.bohemiancoding.com/sketch -->
    <title>01-carre@3x</title>
    <desc>Created with Sketch.</desc>
    <defs>
        <rect id="path-1" x="0" y="0" width="800" height="801.613242"></rect>
    </defs>
    <g id="Welcome" stroke="none" stroke-width="1" fill="none" fill-rule="evenodd">
        <g id="Prototype" transform="translate(-214.000000, -1774.000000)">
            <g id="02" transform="translate(0.000000, 3042.000000)">
                <g id="background" transform="translate(0.000000, 10.962697)" fill="#2C49B0">
                    <rect id="Rectangle-5" x="0" y="0" width="1600" height="1280"></rect>
                </g>
                <g id="02-controle" transform="translate(158.000000, 0.000000)" fill="#42309F">
                    <rect id="Rectangle-4" x="54" y="0" width="370" height="397.513111"></rect>
                </g>
            </g>
            <g id="01" transform="translate(0.000000, 1768.000000)">
                <g id="background" transform="translate(0.000000, 6.000000)">
                    <rect id="Rectangle-2-Copy-4" fill="#2C49B0" x="0" y="0" width="1600" height="1279.02418"></rect>
                    <path d="M1013,1126.14551 L1199.52096,1126.14551 C1214.69722,1126.14551 1227,1138.44829 1227,1153.62454 L1227,1153.62454 C1227,1168.80079 1214.69722,1181.10358 1199.52096,1181.10358 L1013,1181.10358 L1013,1126.14551 Z" id="Rectangle-8-Copy" fill="#1D2375"></path>
                </g>
                <g id="01-carre" transform="translate(213.000000, 5.000000)">
                    <g id="carre">
                        <rect id="Rectangle-3" fill="#2A53E6" x="0" y="0" width="800" height="1280"></rect>
                        <path d="M185.905978,1128 L800,1128 L800,1183 L185.905978,1183 C170.718147,1183 158.405978,1170.68783 158.405978,1155.5 L158.405978,1155.5 C158.405978,1140.31217 170.718147,1128 185.905978,1128 Z" id="Rectangle-8-Copy" fill="#1D2375"></path>
                        <path d="M155.417186,1137 L209.215442,1137 L209.215442,1253.10087 C209.215442,1267.95685 197.172292,1280 182.316314,1280 L182.316314,1280 C167.460335,1280 155.417186,1267.95685 155.417186,1253.10087 L155.417186,1137 Z" id="Rectangle-6-Copy-4" fill="#1D2375" transform="translate(182.316314, 1208.500000) scale(-1, -1) translate(-182.316314, -1208.500000) "></path>
                        <g id="连接水管" transform="translate(442.341220, 804.000000)" stroke="#1D2375" stroke-width="41">
                            <path d="M0.0888737504,0 C0.0888737504,31.9018405 -1.31059016,118.305015 6.99720131,152.032209 C15.3049928,185.759402 48.4471667,200.383436 78.0542848,200.383436 C107.661403,200.383436 254.555887,193.597413 292.212439,208.358896 C317.316807,218.199884 327.843782,257.080252 323.793365,325" id="Path-16"></path>
                        </g>
                    </g>
                    <g id="Rivieres-+-souterraine-Mask" transform="translate(1.000000, 0.994557)">
                        <mask id="mask-2" fill="white">
                            <use xlink:href="#path-1"></use>
                        </mask>
                        <g id="Mask"></g>
                        <path d="M667.183464,-54.5044781 C680.524865,-61.2656859 696.539455,-65.2051176 713.761062,-65.2051176 C760.284943,-65.2051176 798,-36.4551003 798,-0.990156676 C798,34.474787 760.284943,63.2248043 713.761062,63.2248043 C695.592541,63.2248043 678.767419,58.8402506 665.007258,51.3834814 C647.361048,58.2286399 626.132355,62.2214455 603.292035,62.2214455 C572.529061,62.2214455 544.689677,54.9782458 524.589326,43.2783099 C509.2445,55.5660922 487.578726,63.2248043 463.566372,63.2248043 C438.406463,63.2248043 415.822782,54.8165786 400.387166,41.4852191 C381.069542,54.8165791 352.806133,63.2248043 321.318584,63.2248043 C289.208659,63.2248043 260.451589,54.4809038 241.115044,40.6889628 C221.7785,54.4809038 193.02143,63.2248043 160.911504,63.2248043 C145.744059,63.2248043 131.324716,61.2738302 118.292977,57.7614067 C107.880056,61.2738302 96.3583801,63.2248043 84.2389381,63.2248043 C37.7150572,63.2248043 0,34.474787 0,-0.990156676 C0,-36.4551003 37.7150572,-65.2051176 84.2389381,-65.2051176 C96.3583801,-65.2051176 107.880056,-63.2541436 118.292977,-59.7417201 C131.324716,-63.2541436 145.744059,-65.2051176 160.911504,-65.2051176 C193.02143,-65.2051176 221.7785,-56.4612172 241.115044,-42.6692761 C260.451589,-56.4612172 289.208659,-65.2051176 321.318584,-65.2051176 C352.806133,-65.2051176 381.069542,-56.7968924 400.387169,-43.4655335 C415.822782,-56.796892 438.406463,-65.2051176 463.566372,-65.2051176 C486.82673,-65.2051176 507.885182,-58.0185909 523.129186,-46.3993619 C543.330333,-58.606822 571.777047,-66.2084764 603.292035,-66.2084764 C627.079313,-66.2084764 649.118559,-61.8777245 667.183464,-54.5044781 Z" id="Combined-Shape" fill="#1D2375" mask="url(#mask-2)"></path>
                        <g id="Rivieres" mask="url(#mask-2)">
                            <g transform="translate(446.000000, -98.461180)">
                                <rect id="Rectangle-11" stroke="none" fill="#284096" fill-rule="evenodd" x="0" y="564.908587" width="122" height="335.165834"></rect>
                                <path d="M34.5,744.426193 L34.5,467.360288" id="Line-2-Copy-2" stroke="#427CFF" stroke-width="40" fill="none" stroke-linecap="square"></path>
                                <path d="M86.5,744.426193 L86.5,467.360288" id="Line-2-Copy-4" stroke="#427CFF" stroke-width="40" fill="none" stroke-linecap="square"></path>
                                <path d="M394,4.54747351e-13 C379.381717,65.6407866 307.021217,93.488393 279.24648,197.916917 C251.471743,302.345441 139.763314,330.193048 114.248521,365.002556 C97.2386588,388.208894 87.8224852,422.023845 86,466.447408" id="Path-12" stroke="#427CFF" stroke-width="40" fill="none"></path>
                                <path d="M208,1.98911474 C195,33.8149507 214.194882,94.0466284 176.130577,189.139146 C138.066272,284.231664 51.6118138,309.307343 42.386578,360.029769 C36.2364208,393.844719 33.4688501,428.322708 34.0838658,463.463735" id="Path-13" stroke="#427CFF" stroke-width="40" fill="none"></path>
                                <text id="Marne" stroke="none" fill="none" transform="translate(33.000000, 478.879375) rotate(90.000000) translate(-33.000000, -478.879375) " font-family="MuseoSansRounded-500, Museo Sans Rounded" font-size="20" font-weight="normal">
                                    <tspan x="4.46" y="483.955572" fill="#FFFFFF">Marne</tspan>
                                </text>
                                <text id="Seine" stroke="none" fill="none" transform="translate(86.000000, 478.879375) rotate(90.000000) translate(-86.000000, -478.879375) " font-family="MuseoSansRounded-500, Museo Sans Rounded" font-size="20" font-weight="normal">
                                    <tspan x="61.45" y="483.955572" fill="#FFFFFF">Seine</tspan>
                                </text>
                                <text id="50%" stroke="none" fill="none" font-family="MuseoSansRounded-900, Museo Sans Rounded" font-size="50" font-weight="bold">
                                    <tspan x="9.775" y="844.635012" fill="#98A8E4">50%</tspan>
                                </text>
                            </g>
                        </g>
                        <g id="souterraine" mask="url(#mask-2)">
                            <g transform="translate(39.000000, -329.198490)">
                                <rect id="Rectangle-11-Copy" stroke="none" fill="#1D2375" fill-rule="evenodd" x="276" y="795.645898" width="131" height="335.165834"></rect>
                                <path d="M5,66.6353439 C-4.05144022,211.84072 2.02419816,321.57355 23.2269151,395.833834 C55.0309906,507.22426 272.97326,472.414752 290,621.598358" id="Path-9" stroke="#2C49B0" stroke-width="20" fill="none"></path>
                                <path d="M57.5,0.497278686 C37.5074179,130.853755 39.3407513,235.116519 63,313.285572 C98.4888731,430.539152 156,398.817506 241,467.441965 C297.666667,513.191604 324.992047,564.577068 322.97614,621.598358" id="Path-10" stroke="#2C49B0" stroke-width="20" fill="none"></path>
                                <path d="M100,222.780851 C96,270.519605 101,311.296457 175,366.99167 C249,422.686883 241,399.812064 305,455.507276 C369,511.202489 364,576.843276 357,617.620128" id="Path-11" stroke="#2C49B0" stroke-width="20" fill="none"></path>
                                <path d="M204,210.846163 C182,273.171758 220.333333,332.513681 319,388.871933 C361.063732,412.898673 385.730399,452.349449 393,507.22426 L391,637.511276" id="Path-12" stroke="#2C49B0" stroke-width="20" fill="none"></path>
                                <text id="50%" stroke="none" fill="none" font-family="MuseoSansRounded-900, Museo Sans Rounded" font-size="50" font-weight="bold">
                                    <tspan x="290.775" y="979.894815" fill="#98A8E4">50%</tspan>
                                </text>
                                <g id="souterraines" stroke="none" stroke-width="1" fill="none" fill-rule="evenodd" transform="translate(288.000000, 618.614686)" stroke-linecap="square">
                                    <path d="M35.5,277.978786 L35.5,0.912880008" id="Line-2" stroke="#2C49B0" stroke-width="20"></path>
                                    <path d="M69.5,277.978786 L69.5,0.912880008" id="Line-2-Copy" stroke="#2C49B0" stroke-width="20"></path>
                                    <path d="M103.5,277.978786 L103.5,0.912880008" id="Line-2-Copy-2" stroke="#2C49B0" stroke-width="20"></path>
                                    <path d="M1.5,277.978786 L1.5,0.912880008" id="Line-2-Copy-3" stroke="#2C49B0" stroke-width="20"></path>
                                </g>
                                <text id="Provins" stroke="none" fill="none" transform="translate(288.000000, 709.616685) rotate(90.000000) translate(-288.000000, -709.616685) " font-family="MuseoSansRounded-500, Museo Sans Rounded" font-size="20" font-weight="normal">
                                    <tspan x="254.91" y="714.692882" fill="#FFFFFF">Provins</tspan>
                                </text>
                                <text id="Sens" stroke="none" fill="none" transform="translate(323.000000, 709.616685) rotate(90.000000) translate(-323.000000, -709.616685) " font-family="MuseoSansRounded-500, Museo Sans Rounded" font-size="20" font-weight="normal">
                                    <tspan x="301.88" y="714.692882" fill="#FFFFFF">Sens</tspan>
                                </text>
                                <text id="Fontainebleau" stroke="none" fill="none" transform="translate(357.000000, 709.616685) rotate(90.000000) translate(-357.000000, -709.616685) " font-family="MuseoSansRounded-500, Museo Sans Rounded" font-size="20" font-weight="normal">
                                    <tspan x="292.67" y="714.692882" fill="#FFFFFF">Fontainebleau</tspan>
                                </text>
                                <text id="Dreux" stroke="none" fill="none" transform="translate(391.000000, 709.616685) rotate(90.000000) translate(-391.000000, -709.616685) " font-family="MuseoSansRounded-500, Museo Sans Rounded" font-size="20" font-weight="normal">
                                    <tspan x="364.21" y="714.692882" fill="#FFFFFF">Dreux</tspan>
                                </text>
                            </g>
                        </g>
                        <text id="rivières" mask="url(#mask-2)" font-family="MuseoSansRounded-500, Museo Sans Rounded" font-size="30" font-weight="normal" fill="#FFECCD">
                            <tspan x="582" y="439.746752">rivières</tspan>
                        </text>
                        <text id="2" mask="url(#mask-2)" font-family="MuseoSansRounded-900, Museo Sans Rounded" font-size="58" font-weight="bold" fill="#FFECCD">
                            <tspan x="582" y="405.084195">2</tspan>
                        </text>
                        <text id="étapes-de-contrôle" mask="url(#mask-2)" font-family="MuseoSansRounded-500, Museo Sans Rounded" font-size="30" font-weight="normal" fill="#FFECCD">
                            <tspan x="176" y="1053.38865">étapes de contrôle</tspan>
                        </text>
                        <text id="10" mask="url(#mask-2)" font-family="MuseoSansRounded-900, Museo Sans Rounded" font-size="58" font-weight="bold" fill="#FFECCD">
                            <tspan x="176" y="1018.72609">10</tspan>
                        </text>
                        <text id="souterraines" mask="url(#mask-2)" font-family="MuseoSansRounded-500, Museo Sans Rounded" font-size="30" font-weight="normal" fill="#FFECCD">
                            <tspan x="128.04" y="407.920916">souterraines</tspan>
                        </text>
                        <text id="4" mask="url(#mask-2)" font-family="MuseoSansRounded-900, Museo Sans Rounded" font-size="58" font-weight="bold" fill="#FFECCD">
                            <tspan x="262.866" y="373.258359">4</tspan>
                        </text>
                    </g>
                    <g id="10-controle" transform="translate(239.881720, 1089.815599)" fill="#FFA7CA">
                        <rect id="Rectangle-9-Copy" x="47.408182" y="0" width="67.6224829" height="66.5389661"></rect>
                        <rect id="Rectangle-9-Copy-6" x="0" y="66.6353439" width="67.6224829" height="66.5389661"></rect>
                        <rect id="Rectangle-9-Copy-2" x="140.209249" y="0" width="67.6224829" height="66.5389661"></rect>
                        <rect id="Rectangle-9-Copy-7" x="93" y="66.6353439" width="67.6224829" height="66.5389661"></rect>
                        <rect id="Rectangle-9-Copy-3" x="238.765421" y="0" width="67.6224829" height="66.5389661"></rect>
                        <rect id="Rectangle-9-Copy-8" x="191" y="66.6353439" width="67.6224829" height="66.5389661"></rect>
                        <rect id="Rectangle-9-Copy-4" x="336.602205" y="0" width="67.6224829" height="66.5389661"></rect>
                        <rect id="Rectangle-9-Copy-9" x="290" y="66.6353439" width="67.6224829" height="66.5389661"></rect>
                        <rect id="Rectangle-9-Copy-5" x="428.683883" y="0" width="67.6224829" height="66.5389661"></rect>
                        <rect id="Rectangle-9-Copy-10" x="381" y="66.6353439" width="67.6224829" height="66.5389661"></rect>
                    </g>
                </g>
                <g id="01-collection" transform="translate(1013.000000, 0.994557)" fill="#42309F">
                    <g id="Group-3" transform="translate(0.000000, 5.035405)">
                        <rect id="Rectangle-4" x="0" y="0" width="370" height="399.059808"></rect>
                    </g>
                </g>
            </g>
        </g>
    </g>
</svg>