<?xml version="1.0" encoding="UTF-8"?>
<svg width="1600px" height="1272px" viewBox="0 0 1600 1272" version="1.1" xmlns="http://www.w3.org/2000/svg" xmlns:xlink="http://www.w3.org/1999/xlink">
    <!-- Generator: Sketch 49.2 (51160) - http://www.bohemiancoding.com/sketch -->
    <title>background-02@3x</title>
    <desc>Created with Sketch.</desc>
    <defs>
        <rect id="path-1" x="0" y="0" width="370" height="870.6598"></rect>
    </defs>
    <g id="Welcome" stroke="none" stroke-width="1" fill="none" fill-rule="evenodd">
        <g id="Prototype" transform="translate(0.000000, -3052.000000)">
            <g id="02" transform="translate(0.000000, 3047.000000)">
                <g id="background" transform="translate(0.000000, 5.962697)">
                    <rect id="Rectangle-5" fill="#2C49B0" x="0" y="0" width="1600" height="1270.05439"></rect>
                    <g id="Group-11" transform="translate(216.000000, 399.385229)">
                        <mask id="mask-2" fill="white">
                            <use xlink:href="#path-1"></use>
                        </mask>
                        <use id="Mask" fill="#2C49B0" xlink:href="#path-1"></use>
                        <g mask="url(#mask-2)">
                            <g transform="translate(98.000000, -5.990778)">
                                <rect id="Rectangle-8-Copy-2" stroke="none" fill="#1D2375" fill-rule="evenodd" x="72" y="744.853453" width="841" height="54.915469" rx="27.4577345"></rect>
                                <path d="M60,0 L114,0 L114,772.768922 C114,787.68061 101.911688,799.768922 87,799.768922 L87,799.768922 C72.0883118,799.768922 60,787.68061 60,772.768922 L60,0 Z" id="Rectangle-6-Copy-7" stroke="none" fill="#1D2375" fill-rule="evenodd"></path>
                                <path d="M130.848439,14.6054454 C137.212745,38.8988514 133.981415,32.3352043 104.675777,50.9891425 C82.8477605,64.8833453 34.5187296,56.513 34.4799751,97.9552719 C34.4727652,105.665175 39.1330876,109.777925 46.3752688,113.159051 C53.8492514,116.648397 61.7989238,119.551054 69.9849394,120.580302 C82.0092088,122.092142 126.767386,111.990542 131.270578,137.229192 C137.312875,171.093931 108.14408,195.679108 78.9855609,204.020448 C73.2792523,205.652844 67.1550052,205.239432 61.3461519,206.459074 C58.319193,207.094621 55.6117643,208.84844 52.6018295,209.560042 C34.4719098,213.846276 30.0471541,206.58803 35.1131846,230.198043 C39.117281,248.858959 98.2846061,248.382228 109.228855,251.152163 C130.790068,256.609198 124.692337,302.244133 124.350503,310.973765 C124.077242,317.952181 113.251016,324.658153 98.358758,330.512879 C62.4385716,344.634502 35.5196748,330.875795 37.977704,368.356741 C38.210684,371.909306 37.6228283,375.916378 39.5305751,378.92412 C45.6567724,388.582647 71.7738072,389.889691 76.2718057,390.334481 C121.482291,394.805176 136.158241,380.834868 143.256331,425.513918 C147.741429,453.745449 110.574207,472.315722 86.9006803,475.159526 C74.6896937,476.626382 62.2665778,475.205931 50.023762,476.378839 C39.071761,477.428081 18.0638612,479.608592 29.7309034,500.825311 C33.967832,508.530239 43.0378612,514.255991 51.7726265,515.351694 C82.7822698,519.241593 114.32676,513.635433 145.53287,515.351694 C149.036569,515.544389 151.272907,519.432632 154.41288,520.996662 C157.973752,522.770343 163.616495,521.838283 165.539276,525.316943 C168.452528,530.587542 166.764316,537.315699 166.760466,543.33568 C166.745902,566.107519 102.831036,584.278008 84.1266194,584.265457 C71.5470092,584.257016 63.0941409,576.439743 49.9031506,574.962551 C34.4761923,573.234963 17.9261122,569.67923 3.33209554,574.962551 C-1.95935755,576.878161 0.907221304,586.750591 3.33209554,591.822187 C4.80103978,594.894466 21.73514,611.907735 28.2534144,616.027808 C45.2861946,626.793892 112.540665,618.449214 138.62787,619.113723 C141.361157,619.183347 145.856669,617.749111 146.738983,620.333036 C157.909433,653.046564 136.795186,654.046496 116.299695,662.738032 C111.53379,664.759112 107.862228,668.833173 103.183212,671.047424 C84.8685952,679.714448 65.5219094,685.143351 49.0739476,697.315339 C34.9862795,707.740639 13.0730619,721.15031 19.0417231,742.3396 C20.9919576,749.26311 55.3236216,750.036173 59.3409883,748.767336 C74.3966553,744.012186 87.8654105,735.206954 102.414314,729.07769 C103.539451,728.603684 104.917383,729.457292 106.077884,729.07769 C114.0492,726.470258 121.674332,722.88855 129.612172,720.181221 C132.239954,719.284973 134.947744,718.370068 137.723285,718.284512 C138.884671,718.248712 140.892283,718.675841 140.844104,719.834996 C138.789349,769.271074 123.558554,761.036642 100.831291,801.423593 C98.5985222,805.391281 98.6024298,811.107009 100.831291,815.076888 C102.572187,818.177641 107.254965,819.809131 110.736497,819.065998 C120.092482,817.068962 128.466053,811.805634 136.939312,807.369625 C165.531329,792.400835 170.646759,769.835025 183.842048,742.38476 C188.513616,732.666459 197.667109,718.471388 210.18055,730.477642 C212.745086,732.938234 213.445309,737.016285 213.617973,740.563317 C214.598971,760.715896 214.008527,780.919822 213.617973,801.092421 C213.395749,812.570588 207.741843,820.853496 216.723715,829.001141 C217.965959,830.128006 220.136445,831.025463 221.608475,830.220454 C241.217976,819.496609 266.425486,810.741436 275.220217,788.267055 C282.439224,769.819339 285.554148,726.933461 311.448849,719.819943 C318.053034,718.005711 328.34481,712.431733 331.937701,718.254405 C342.704339,735.702912 343.837632,787.349001 342.249971,809.055589 C342.048627,811.808384 335.58007,832.435338 337.87781,839.402934 C338.280398,840.623728 340.381958,841.180624 341.54138,840.622247 C350.280726,836.413385 358.810301,831.566092 366.477775,825.629213 C398.491044,800.841533 407.809912,773.170475 427.054822,738.395649 C431.047208,731.18156 442.338601,713.23905 455.534176,725.961668 C478.843837,748.43586 470.952793,820.470082 471.816707,843.181299 C471.893954,845.212023 473.76578,849.153685 475.480277,848.058551 C489.019986,839.410063 500.615071,828.01179 512.492883,817.199395 C517.443438,812.692896 521.544355,807.330282 525.850589,802.206362 C530.041042,797.220207 534.626578,792.46875 537.972029,786.882157 C548.212437,769.781626 556.803118,751.746691 566.496612,734.331273 C568.054058,731.533152 569.648844,728.712181 571.713053,726.262732 C572.661603,725.137156 573.904289,723.741084 575.376622,723.794 C583.170307,724.074106 592.595609,722.161013 598.518924,727.22614 C604.513498,732.352202 604.541344,741.954568 605.725452,749.745797 C609.401014,773.930375 599.614008,803.625636 600.117024,828.564597 C600.201138,832.73486 602.830262,838.193682 607.444163,837.777183 C631.316845,835.622188 657.919051,842.406672 679.042072,831.093542 C692.636067,823.81283 690.752537,802.505681 698.339887,789.094984 C702.076055,782.491281 708.476174,777.740608 712.768019,771.482685 C722.373995,757.476251 730.567745,742.546599 739.965877,728.400294 C741.91004,725.473891 743.705371,722.089333 746.750265,720.331753 C749.46691,718.763647 754.729273,716.270611 756.082568,719.097387 C761.551986,730.521958 762.347264,743.703012 763.952458,756.263853 C768.0873,788.619487 756.199825,796.802581 748.363442,829.723696 C746.786565,836.348252 742.750721,854.018479 748.363442,850.150952 C765.813131,838.126989 775.217583,817.370819 789.28084,801.528966 C808.313696,780.089003 830.446673,759.718931 856.702582,747.608236 C873.514753,739.853522 896.014162,730.097938 910.223865,749.640424 C928.985045,775.442519 916.424861,813.32585 888.574129,826.803367 C876.720583,832.53953 863.680602,835.522942 851.697211,840.983525 C849.589392,841.944014 847.582019,843.700865 846.752146,845.860777 C845.796349,848.34843 844.234371,852.971191 846.752146,853.854051 C853.921402,856.367956 861.973479,853.247727 869.54769,853.854051 C885.564079,855.13618 895.43427,861.608477 899.158265,873.270943" id="Path-7" stroke="#2C49B0" stroke-width="25" fill="none" style="mix-blend-mode: multiply;"></path>
                            </g>
                        </g>
                    </g>
                </g>
            </g>
        </g>
    </g>
</svg>