<?xml version="1.0" encoding="UTF-8"?>
<svg width="800px" height="1280px" viewBox="0 0 800 1280" version="1.1" xmlns="http://www.w3.org/2000/svg" xmlns:xlink="http://www.w3.org/1999/xlink">
    <!-- Generator: Sketch 49.2 (51160) - http://www.bohemiancoding.com/sketch -->
    <title>02-carre@3x</title>
    <desc>Created with Sketch.</desc>
    <defs>
        <path d="M0,45.0723528 C0,29.5835162 25.5197693,17.0273333 57,17.0273333 C63.7605127,17.0273333 70.2461326,17.6064166 76.2631379,18.6692687 C84.1037334,7.79097488 105.202666,0 130,0 C151.524861,0 170.263057,5.87033017 179.961985,14.5345982 C188.892716,11.6765139 199.552251,10.0160784 211,10.0160784 C229.909521,10.0160784 246.668414,14.5465442 257.037506,21.521726 C265.952783,18.6784263 276.584502,17.0273333 288,17.0273333 C308.153661,17.0273333 325.864386,22.1735694 336,29.940919 C346.003478,22.2748302 363.385847,17.1619588 383.213044,17.0299516 C393.51292,9.76287579 410.627892,5.0080392 430,5.0080392 C449.387799,5.0080392 466.514804,9.77058163 476.811971,17.0476153 C477.537921,17.0341344 478.267346,17.0273333 479,17.0273333 C510.480231,17.0273333 536,29.5835162 536,45.0723528 L536,169.271725 L0,169.271725 L0,45.0723528 Z" id="path-1"></path>
    </defs>
    <g id="Welcome" stroke="none" stroke-width="1" fill="none" fill-rule="evenodd">
        <g id="Prototype" transform="translate(-582.000000, -3053.000000)">
            <g id="03" transform="translate(0.000000, 4332.000000)">
                <g id="background" fill="#2C49B0">
                    <rect id="Rectangle-2-Copy-4" x="0" y="0" width="1600" height="1280"></rect>
                </g>
                <g id="03-distribution" transform="translate(1014.000000, 0.000000)" fill="#42309F">
                    <rect id="Rectangle-4" x="0" y="0" width="370" height="400"></rect>
                </g>
            </g>
            <g id="02" transform="translate(0.000000, 3042.000000)">
                <g id="background" transform="translate(0.000000, 10.962697)" fill="#2C49B0">
                    <rect id="Rectangle-5" x="0" y="0" width="1600" height="1280"></rect>
                </g>
                <g id="02-carre" transform="translate(582.000000, 12.000000)">
                    <rect id="Rectangle-3-Copy" fill="#427CFF" x="0" y="0" width="800" height="1279.05321"></rect>
                    <g id="aqueduc" transform="translate(124.000000, 702.127095)">
                        <text id="3-aqueducs-principau" font-family="MuseoSansRounded-500, Museo Sans Rounded" font-size="40" font-weight="normal" fill="#FFECCD">
                            <tspan x="33" y="181.229921">3 aqueducs principaux </tspan>
                            <tspan x="449.76" y="181.229921" font-size="14"></tspan>
                            <tspan x="33" y="229.229921" font-size="14">qui alimentent Paris : la Vanne, le Loing et l’Avre</tspan>
                        </text>
                        <ellipse id="Oval-2-Copy" fill="#FFA079" cx="469" cy="70.1125487" rx="70" ry="70.1125487"></ellipse>
                        <ellipse id="Oval-2-Copy-2" fill="#FFA079" cx="269.5" cy="70.1125487" rx="70" ry="70.1125487"></ellipse>
                        <ellipse id="Oval-2-Copy-3" fill="#FFA079" cx="70" cy="70.1125487" rx="70" ry="70.1125487"></ellipse>
                    </g>
                    <g id="reservoirs" transform="translate(126.000000, 400.643136)">
                        <text id="5-grands-réservoirs" font-family="MuseoSansRounded-500, Museo Sans Rounded" font-size="40" font-weight="normal" fill="#FFECCD">
                            <tspan x="31" y="130.147921">5 grands réservoirs </tspan>
                            <tspan x="31" y="178.147921" font-size="14">situés aux portes de Paris,</tspan>
                            <tspan x="31" y="195.147921" font-size="14">dont les trois principaux sont La Voulzie (77), La Vanne (10) et l’Avre (28).</tspan>
                            <tspan x="31" y="212.147921" font-size="14">Eau de Paris assure ainsi la gestion et l’entretien d’un réseau d’aqueducs qui </tspan>
                            <tspan x="31" y="229.147921" font-size="14">totalisent 470 km de linéaires. Ces ouvrages d’art monumentaux, qui sont </tspan>
                            <tspan x="31" y="246.147921" font-size="14">paradoxalement peu visibles, transportent quotidiennement la moitié de l’eau </tspan>
                            <tspan x="31" y="263.147921" font-size="14">potable fournie aux Parisiens.</tspan>
                        </text>
                        <ellipse id="Oval-2-Copy-4" fill="#FFA079" cx="155.5" cy="41.5667253" rx="41.5" ry="41.5667253"></ellipse>
                        <ellipse id="Oval-2-Copy-6" fill="#FFA079" cx="383.5" cy="41.5667253" rx="41.5" ry="41.5667253"></ellipse>
                        <ellipse id="Oval-2-Copy-8" fill="#FFA079" cx="496.5" cy="41.5667253" rx="41.5" ry="41.5667253"></ellipse>
                        <ellipse id="Oval-2-Copy-5" fill="#FFA079" cx="41.5" cy="41.5667253" rx="41.5" ry="41.5667253"></ellipse>
                        <ellipse id="Oval-2-Copy-7" fill="#FFA079" cx="269.5" cy="41.5667253" rx="41.5" ry="41.5667253"></ellipse>
                    </g>
                    <g id="M²" transform="translate(121.000000, 147.236352)">
                        <g id="Group-4">
                            <rect id="Rectangle-12" fill="#2A53E6" x="0" y="0" width="544" height="198.318352"></rect>
                            <g id="Group-2" transform="translate(4.000000, 23.036980)" fill="#57A0FF">
                                <ellipse id="Oval-5" cx="57" cy="45.0723528" rx="57" ry="28.0450195"></ellipse>
                                <ellipse id="Oval-5-Copy" cx="130" cy="28.0450195" rx="57" ry="28.0450195"></ellipse>
                                <ellipse id="Oval-5-Copy-2" cx="211" cy="38.0610979" rx="57" ry="28.0450195"></ellipse>
                                <ellipse id="Oval-5-Copy-3" cx="288" cy="45.0723528" rx="57" ry="28.0450195"></ellipse>
                                <ellipse id="Oval-5-Copy-4" cx="384" cy="45.0723528" rx="57" ry="28.0450195"></ellipse>
                                <ellipse id="Oval-5-Copy-5" cx="430" cy="33.0530587" rx="57" ry="28.0450195"></ellipse>
                                <ellipse id="Oval-5-Copy-6" cx="479" cy="45.0723528" rx="57" ry="28.0450195"></ellipse>
                            </g>
                            <g id="Path-3-+-Path-3-Copy-+-Path-3-Copy-2-+-Path-3-Copy-3-+-Path-3-Copy-4-+-Path-3-Copy-5-+-Path-3-Copy-6-Mask" transform="translate(4.000000, 23.036980)">
                                <mask id="mask-2" fill="white">
                                    <use xlink:href="#path-1"></use>
                                </mask>
                                <use id="Mask" fill="#57A0FF" xlink:href="#path-1"></use>
                                <path d="M2,60.046137 C8,51.0316665 19,45.3558887 35,43.0188038 C51,40.6817188 66,41.8502613 80,46.5244312 C89.6666667,38.8454378 102.666667,33.8373986 119,31.5003136 C143.5,27.9946862 166.5,30.4987058 173,35.005941 C179.5,39.5131763 201,25.9914705 220.5,31.5003136 C233.5,35.1728757 247,40.1809149 261,46.5244312 C273,39.5131763 285.5,38.3446338 298.5,43.0188038 C311.5,47.6929737 324.666667,51.8663397 338,55.5389017 C345.666667,50.1969933 354,46.0236273 363,43.0188038 C372,40.0139802 380.333333,36.1744835 388,31.5003136 C391.333333,29.1632286 399.166667,26.8261437 411.5,24.4890587 C430,20.9834313 464.5,24.4890587 468,27.9946862 C471.5,31.5003136 486.5,30.4987058 500,38.5115685 C509,43.8534769 518.666667,51.0316665 529,60.046137 L534.5,69.0606076" id="Path-3" stroke="#427CFF" stroke-width="8" mask="url(#mask-2)"></path>
                                <path d="M2,82.0815095 C8,73.0670389 19,67.3912612 35,65.0541762 C51,62.7170913 66,63.8856337 80,68.5598036 C89.6666667,60.8808102 102.666667,55.872771 119,53.5356861 C143.5,50.0300586 166.5,52.5340782 173,57.0413135 C179.5,61.5485488 201,48.0268429 220.5,53.5356861 C233.5,57.2082481 247,62.2162873 261,68.5598036 C273,61.5485488 285.5,60.3800063 298.5,65.0541762 C311.5,69.7283461 324.666667,73.9017121 338,77.5742742 C345.666667,72.2323657 354,68.0589997 363,65.0541762 C372,62.0493527 380.333333,58.209856 388,53.5356861 C391.333333,51.1986011 399.166667,48.8615161 411.5,46.5244312 C430,43.0188038 464.5,46.5244312 468,50.0300586 C471.5,53.5356861 486.5,52.5340782 500,60.5469409 C509,65.8888494 518.666667,73.0670389 529,82.0815095 L534.5,91.09598" id="Path-3-Copy" stroke="#427CFF" stroke-width="8" mask="url(#mask-2)"></path>
                                <path d="M2,98.1072349 C8,89.0927643 19,83.4169866 35,81.0799016 C51,78.7428167 66,79.9113592 80,84.5855291 C89.6666667,76.9065356 102.666667,71.8984964 119,69.5614115 C143.5,66.055784 166.5,68.5598036 173,73.0670389 C179.5,77.5742742 201,64.0525684 220.5,69.5614115 C233.5,73.2339736 247,78.2420128 261,84.5855291 C273,77.5742742 285.5,76.4057317 298.5,81.0799016 C311.5,85.7540716 324.666667,89.9274375 338,93.5999996 C345.666667,88.2580911 354,84.0847252 363,81.0799016 C372,78.0750781 380.333333,74.2355814 388,69.5614115 C391.333333,67.2243265 399.166667,64.8872416 411.5,62.5501566 C430,59.0445292 464.5,62.5501566 468,66.055784 C471.5,69.5614115 486.5,68.5598036 500,76.5726664 C509,81.9145748 518.666667,89.0927643 529,98.1072349 L534.5,107.121705" id="Path-3-Copy-2" stroke="#427CFF" stroke-width="8" mask="url(#mask-2)"></path>
                                <path d="M2,121.144215 C8,112.129745 19,106.453967 35,104.116882 C51,101.779797 66,102.948339 80,107.622509 C89.6666667,99.9435159 102.666667,94.9354767 119,92.5983918 C143.5,89.0927643 166.5,91.5967839 173,96.1040192 C179.5,100.611254 201,87.0895487 220.5,92.5983918 C233.5,96.2709539 247,101.278993 261,107.622509 C273,100.611254 285.5,99.442712 298.5,104.116882 C311.5,108.791052 324.666667,112.964418 338,116.63698 C345.666667,111.295071 354,107.121705 363,104.116882 C372,101.112058 380.333333,97.2725617 388,92.5983918 C391.333333,90.2613068 399.166667,87.9242219 411.5,85.5871369 C430,82.0815095 464.5,85.5871369 468,89.0927643 C471.5,92.5983918 486.5,91.5967839 500,99.6096467 C509,104.951555 518.666667,112.129745 529,121.144215 L534.5,130.158686" id="Path-3-Copy-3" stroke="#427CFF" stroke-width="8" mask="url(#mask-2)"></path>
                                <path d="M2,144.181195 C8,135.166725 19,129.490947 35,127.153862 C51,124.816777 66,125.98532 80,130.65949 C89.6666667,122.980496 102.666667,117.972457 119,115.635372 C143.5,112.129745 166.5,114.633764 173,119.141 C179.5,123.648235 201,110.126529 220.5,115.635372 C233.5,119.307934 247,124.315973 261,130.65949 C273,123.648235 285.5,122.479692 298.5,127.153862 C311.5,131.828032 324.666667,136.001398 338,139.67396 C345.666667,134.332052 354,130.158686 363,127.153862 C372,124.149039 380.333333,120.309542 388,115.635372 C391.333333,113.298287 399.166667,110.961202 411.5,108.624117 C430,105.11849 464.5,108.624117 468,112.129745 C471.5,115.635372 486.5,114.633764 500,122.646627 C509,127.988535 518.666667,135.166725 529,144.181195 L534.5,153.195666" id="Path-3-Copy-4" stroke="#427CFF" stroke-width="8" mask="url(#mask-2)"></path>
                                <path d="M2,160.206921 C8,151.19245 19,145.516673 35,143.179588 C51,140.842503 66,142.011045 80,146.685215 C89.6666667,139.006222 102.666667,133.998182 119,131.661098 C143.5,128.15547 166.5,130.65949 173,135.166725 C179.5,139.67396 201,126.152254 220.5,131.661098 C233.5,135.33366 247,140.341699 261,146.685215 C273,139.67396 285.5,138.505418 298.5,143.179588 C311.5,147.853758 324.666667,152.027124 338,155.699686 C345.666667,150.357777 354,146.184411 363,143.179588 C372,140.174764 380.333333,136.335267 388,131.661098 C391.333333,129.324013 399.166667,126.986928 411.5,124.649843 C430,121.144215 464.5,124.649843 468,128.15547 C471.5,131.661098 486.5,130.65949 500,138.672352 C509,144.014261 518.666667,151.19245 529,160.206921 L534.5,169.221391" id="Path-3-Copy-5" stroke="#427CFF" stroke-width="8" mask="url(#mask-2)"></path>
                                <path d="M2,183.243901 C8,174.229431 19,168.553653 35,166.216568 C51,163.879483 66,165.048025 80,169.722195 C89.6666667,162.043202 102.666667,157.035163 119,154.698078 C143.5,151.19245 166.5,153.69647 173,158.203705 C179.5,162.710941 201,149.189235 220.5,154.698078 C233.5,158.37064 247,163.378679 261,169.722195 C273,162.710941 285.5,161.542398 298.5,166.216568 C311.5,170.890738 324.666667,175.064104 338,178.736666 C345.666667,173.394757 354,169.221391 363,166.216568 C372,163.211744 380.333333,159.372248 388,154.698078 C391.333333,152.360993 399.166667,150.023908 411.5,147.686823 C430,144.181195 464.5,147.686823 468,151.19245 C471.5,154.698078 486.5,153.69647 500,161.709333 C509,167.051241 518.666667,174.229431 529,183.243901 L534.5,192.258372" id="Path-3-Copy-6" stroke="#427CFF" stroke-width="8" mask="url(#mask-2)"></path>
                            </g>
                        </g>
                        <g id="text1" transform="translate(106.000000, 28.045019)" font-family="MuseoSansRounded-500, Museo Sans Rounded" font-weight="normal">
                            <text id="Les-5-réservoirs-d'e" font-size="14" fill="#FBEACD">
                                <tspan x="13" y="82.1109409">Les 5 réservoirs d'eau potable de Paris stockent </tspan>
                                <tspan x="13" y="99.1109409">plus d'un million de mètres cubes d'eau, soit deux </tspan>
                                <tspan x="13" y="116.110941">jours de consommation.</tspan>
                            </text>
                            <text id="1-087-000-m3" font-size="50" fill="#FFECCD">
                                <tspan x="14.025" y="47.0482352">1 087 000 m3</tspan>
                            </text>
                        </g>
                    </g>
                </g>
                <g id="水管" transform="translate(582.000000, 1071.000000)">
                    <g id="Rectangle-6-Copy-5-+-Rectangle-8-Copy-2-+-Rectangle-6-Copy-7-+-Path-7-Mask" transform="translate(-268.000000, -649.945832)">
                        <path d="M886,718.053444 L886,718.053444 C900.911688,718.053444 913,730.141755 913,745.053444 L913,869.364135 L859,869.364135 L859,745.053444 C859,730.141755 871.088312,718.053444 886,718.053444 Z" id="Rectangle-6-Copy-5" fill="#1D2375"></path>
                        <rect id="Rectangle-8-Copy-2" fill="#1D2375" x="72" y="718.053444" width="841" height="52.939597" rx="26.4697985"></rect>
                        <path d="M130.848439,14.0799379 C137.212745,37.4992612 133.981415,31.1717758 104.675777,49.1545407 C82.8477605,62.5488267 34.5187296,54.4796485 34.4799751,94.4308173 C34.4727652,101.863317 39.1330876,105.828088 46.3752688,109.087561 C53.8492514,112.451359 61.7989238,115.249578 69.9849394,116.241793 C82.0092088,117.699237 126.767386,107.961095 131.270578,132.291652 C137.312875,164.937929 108.14408,188.638526 78.9855609,196.679742 C73.2792523,198.253404 67.1550052,197.854867 61.3461519,199.030626 C58.319193,199.643306 55.6117643,201.334023 52.6018295,202.020021 C34.4719098,206.152035 30.0471541,199.154942 35.1131846,221.915462 C39.117281,239.904953 98.2846061,239.445375 109.228855,242.115647 C130.790068,247.376337 124.692337,291.369315 124.350503,299.784853 C124.077242,306.512184 113.251016,312.976873 98.358758,318.620945 C62.4385716,332.234469 35.5196748,318.970803 37.977704,355.103175 C38.210684,358.527919 37.6228283,362.390814 39.5305751,365.290338 C45.6567724,374.601348 71.7738072,375.861364 76.2718057,376.290151 C121.482291,380.599989 136.158241,367.132336 143.256331,410.203824 C147.741429,437.419577 110.574207,455.321686 86.9006803,458.06317 C74.6896937,459.477248 62.2665778,458.107906 50.023762,459.238612 C39.071761,460.250102 18.0638612,462.352158 29.7309034,482.805494 C33.967832,490.233197 43.0378612,495.752935 51.7726265,496.809214 C82.7822698,500.559154 114.32676,495.154705 145.53287,496.809214 C149.036569,496.994976 151.272907,500.743319 154.41288,502.251074 C157.973752,503.960938 163.616495,503.062414 165.539276,506.415911 C168.452528,511.496873 166.764316,517.982949 166.760466,523.786329 C166.745902,545.738832 102.831036,563.255542 84.1266194,563.243443 C71.5470092,563.235306 63.0941409,555.699301 49.9031506,554.275258 C34.4761923,552.609829 17.9261122,549.182032 3.33209554,554.275258 C-1.95935755,556.121943 0.907221304,565.639162 3.33209554,570.52828 C4.80103978,573.490018 21.73514,589.891145 28.2534144,593.862976 C45.2861946,604.241694 112.540665,596.19726 138.62787,596.83786 C141.361157,596.904979 145.856669,595.522347 146.738983,598.013302 C157.909433,629.549789 136.795186,630.513743 116.299695,638.892555 C111.53379,640.840917 107.862228,644.768392 103.183212,646.902974 C84.8685952,655.258156 65.5219094,660.491726 49.0739476,672.225763 C34.9862795,682.275958 13.0730619,695.203146 19.0417231,715.63004 C20.9919576,722.30444 55.3236216,723.049688 59.3409883,721.826504 C74.3966553,717.242446 87.8654105,708.754028 102.414314,702.845296 C103.539451,702.388346 104.917383,703.21124 106.077884,702.845296 C114.0492,700.33168 121.674332,696.878843 129.612172,694.268924 C132.239954,693.404924 134.947744,692.522937 137.723285,692.440459 C138.884671,692.405948 140.892283,692.817708 140.844104,693.935157 C138.789349,741.592513 123.558554,733.654358 100.831291,772.588176 C98.5985222,776.413106 98.6024298,781.923181 100.831291,785.750222 C102.572187,788.73941 107.254965,790.312199 110.736497,789.595803 C120.092482,787.670621 128.466053,782.596668 136.939312,778.320269 C165.531329,763.890059 170.646759,742.136173 183.842048,715.673574 C188.513616,706.30494 197.667109,692.620612 210.18055,704.194877 C212.745086,706.566937 213.445309,710.498258 213.617973,713.917668 C214.598971,733.345152 214.008527,752.822136 213.617973,772.26892 C213.395749,783.3341 207.741843,791.318986 216.723715,799.173477 C217.965959,800.259798 220.136445,801.124963 221.608475,800.348919 C241.217976,790.010921 266.425486,781.570761 275.220217,759.905014 C282.439224,742.121051 285.554148,700.778218 311.448849,693.920645 C318.053034,692.17169 328.34481,686.798266 331.937701,692.411436 C342.704339,709.232141 343.837632,759.019992 342.249971,779.945571 C342.048627,782.59932 335.58007,802.484111 337.87781,809.201011 C338.280398,810.37788 340.381958,810.914739 341.54138,810.376453 C350.280726,806.319027 358.810301,801.646141 366.477775,795.922872 C398.491044,772.027059 407.809912,745.351612 427.054822,711.827993 C431.047208,704.873469 442.338601,687.576535 455.534176,699.841389 C478.843837,721.506954 470.952793,790.949368 471.816707,812.84343 C471.893954,814.801088 473.76578,818.600928 475.480277,817.545197 C489.019986,809.207884 500.615071,798.219723 512.492883,787.796361 C517.443438,783.452007 521.544355,778.282342 525.850589,773.342781 C530.041042,768.536029 534.626578,763.955531 537.972029,758.569944 C548.212437,742.084695 556.803118,724.698661 566.496612,707.909854 C568.054058,705.21241 569.648844,702.492939 571.713053,700.131622 C572.661603,699.046544 573.904289,697.700703 575.376622,697.751715 C583.170307,698.021743 592.595609,696.177483 598.518924,701.060366 C604.513498,706.001991 604.541344,715.258862 605.725452,722.76976 C609.401014,746.084171 599.614008,774.710989 600.117024,798.75264 C600.201138,802.772856 602.830262,808.035268 607.444163,807.633756 C631.316845,805.556298 657.919051,812.096674 679.042072,801.190593 C692.636067,794.171843 690.752537,773.63133 698.339887,760.703153 C702.076055,754.337053 708.476174,749.757311 712.768019,743.72455 C722.373995,730.22207 730.567745,715.82959 739.965877,702.192273 C741.91004,699.371163 743.705371,696.108382 746.750265,694.414041 C749.46691,692.902355 754.729273,690.499019 756.082568,693.224087 C761.551986,704.237599 762.347264,716.944396 763.952458,729.053295 C768.0873,760.244765 756.199825,768.13343 748.363442,799.870035 C746.786565,806.256238 742.750721,823.290686 748.363442,819.562313 C765.813131,807.970975 775.217583,787.961618 789.28084,772.689757 C808.313696,752.02121 830.446673,732.384058 856.702582,720.709109 C873.514753,713.233411 896.014162,703.828835 910.223865,722.668179 C928.985045,747.541908 916.424861,784.062187 888.574129,797.054779 C876.720583,802.584555 863.680602,805.460622 851.697211,810.724732 C849.589392,811.650663 847.582019,813.344302 846.752146,815.426499 C845.796349,817.824646 844.234371,822.281079 846.752146,823.132173 C853.921402,825.555627 861.973479,822.547665 869.54769,823.132173 C885.564079,824.368171 895.43427,830.607594 899.158265,841.850441" id="Path-7" stroke="#2C49B0" stroke-width="25" style="mix-blend-mode: multiply;"></path>
                    </g>
                </g>
            </g>
            <g id="01" transform="translate(0.000000, 1768.000000)" fill="#2C49B0">
                <g id="background" transform="translate(0.000000, 6.000000)">
                    <rect id="Rectangle-2-Copy-4" x="0" y="0" width="1600" height="1279.02418"></rect>
                </g>
            </g>
        </g>
    </g>
</svg>