<?xml version="1.0" encoding="UTF-8"?>
<svg width="1600px" height="1280px" viewBox="0 0 1600 1280" version="1.1" xmlns="http://www.w3.org/2000/svg" xmlns:xlink="http://www.w3.org/1999/xlink">
    <!-- Generator: Sketch 49.2 (51160) - http://www.bohemiancoding.com/sketch -->
    <title>background-03@3x</title>
    <desc>Created with Sketch.</desc>
    <defs>
        <rect id="path-1" x="0" y="0" width="370" height="870.6598"></rect>
    </defs>
    <g id="Welcome" stroke="none" stroke-width="1" fill="none" fill-rule="evenodd">
        <g id="Prototype" transform="translate(0.000000, -4323.000000)">
            <g id="用水量" transform="translate(-79.000000, 5601.000000)" fill="#2C49B0">
                <g id="Group-7">
                    <g transform="translate(79.000000, 0.000000)">
                        <rect id="Rectangle-2-Copy" x="0" y="0" width="1600" height="900"></rect>
                    </g>
                </g>
            </g>
            <g id="03" transform="translate(0.000000, 4323.000000)">
                <g id="background">
                    <rect id="Rectangle-2-Copy-4" fill="#2C49B0" x="0" y="0" width="1600" height="1280"></rect>
                    <g id="连接水管-copy" transform="translate(422.000000, 400.000000)">
                        <rect id="Rectangle-8-Copy-3" fill="#050A50" x="0" y="763" width="800" height="55" rx="27.5"></rect>
                        <path d="M751,0 L805,0 L805,791 C805,805.911688 792.911688,818 778,818 L778,818 C763.088312,818 751,805.911688 751,791 L751,0 Z" id="Rectangle-6-Copy-5" fill="#050A50"></path>
                        <path d="M793.600154,3 C797.123011,13.5032378 828.970929,47.8542811 827.748241,58.8648922 C826.792533,67.4712827 817.672753,73.075646 811.435557,79.0823686 C789.681193,100.032876 761.190622,101.137429 734.470443,110.049331 C726.440766,112.727445 697.928153,126.413999 705.101581,141.966108 C715.947424,165.480071 753.47411,168.518908 774.317416,171.410352 C801.954621,175.244266 834.595081,167.213738 834.924616,202.317009 C834.989173,209.193859 835.392502,216.248731 833.68835,222.911396 C831.840777,230.134782 812.973139,240.229869 810.8325,241.274473 C797.316483,247.870114 774.813804,255.644074 759.452068,261.024581 C744.055599,266.417252 723.153302,270.363761 729.419843,293.60472 C735.259165,315.261236 759.673629,324.024901 780.408289,326.833145 C783.052671,327.191293 785.918718,325.88696 788.413866,326.833145 C798.207137,330.546851 807.941034,334.790086 816.667074,340.582838 C819.090123,342.191371 860.322524,372.937042 850.86039,386.580989 C838.824159,403.936663 816.084785,426.194284 793.600154,429.744774 C777.124728,432.346366 728.447803,425.948124 718.202988,450.520078 C711.213717,467.283685 745.291653,481.45148 754.386391,485.648132 C784.405055,499.499864 818.566203,490.484989 820.918624,537.556239 C821.343043,546.04874 826.953239,557.075035 820.918624,563.065538 L819.350676,566.186357 C799.23151,586.158453 749.012565,599.839245 722.137933,602.038079 C715.372711,602.591597 733.708034,630.672579 740.455781,634.980052 C740.468428,634.988125 774.516869,656.708539 787.132371,660.067211 C795.511091,662.297909 814.094197,666.256202 821.506604,670.952385 C823.28546,672.079392 825.633343,682.746085 827.718088,694.667591 C828.645232,699.969416 828.279645,705.461528 827.718088,710.814434 C827.337308,714.44413 826.338264,718.037901 824.913874,721.39808 C824.019386,723.508205 822.501616,725.34832 820.873394,726.961278 C799.571576,748.063392 720.326863,703.75406 724.670771,741.871855 C725.723476,751.109338 738.772633,761.216596 742.340333,768.934025 C744.139644,772.826184 745.003898,777.152221 745.446075,781.4173 C746.046707,787.210771 747.066864,793.296397 745.446075,798.890868 C743.109396,806.956378 738.278567,814.115612 733.897539,821.279349 C730.962799,826.078155 727.430635,830.531643 723.585269,834.637055 C720.406677,838.030602 717.057623,841.490429 712.941318,843.652753 C706.668284,846.948022 699.784343,849.056373 692.904759,850.753746 C678.640621,854.27308 674.793137,841.760577 669.717228,829.646761 C659.956318,806.352044 669.794583,778.693698 656.841967,756.978426 C652.688917,750.01577 647.207905,743.932091 642.157536,737.590152 C641.068405,736.222489 639.912625,734.837251 638.448737,733.881354 C637.152371,733.034846 635.587491,731.975362 634.076576,732.313406 C591.023303,741.945902 592.488102,760.912209 572.971854,805.328498 C567.417516,817.969405 559.08895,837.385066 542.698407,836.92867 C532.726931,836.651014 528.84349,825.07668 524.817775,817.721314 C518.692677,806.530176 513.812045,794.700442 508.490014,783.105858 C507.844133,781.698742 506.984621,780.280703 506.922067,778.733697 C505.573646,745.386209 515.853803,722.181875 475.186207,718.337567 C464.084176,717.288092 452.778397,716.812593 441.731635,718.337567 C430.854098,719.83918 422.065603,746.04788 419.870829,752.530883 C411.187345,778.180471 407.330421,816.299222 378.862972,831.259937 C369.989307,835.923382 349.518638,799.711677 347.217571,794.488554 C337.112535,771.551429 353.465362,727.84697 322.552551,716.272097 C313.160654,712.755432 307.340749,709.822941 297.55585,713.121126 C283.342861,717.911884 268.511058,749.200564 267.779925,762.677312 C267.005678,776.94877 268.235928,791.269477 267.779925,805.554645 C267.711482,807.698741 267.132537,809.858653 266.211977,811.796282 C265.228467,813.866413 264.426939,816.952388 262.171497,817.35948 C251.891312,819.214984 244.516731,802.979137 239.315648,797.639525 C237.070924,795.335015 233.56742,794.578159 231.234688,792.362779 C225.322784,786.748284 219.722048,780.755933 214.741087,774.30123 C212.59915,771.525549 211.137176,768.222576 210.037244,764.893545 C208.093905,759.011877 208.530899,752.323599 205.665083,746.831997 C204.298757,744.213782 200.979619,742.996984 198.157027,742.128154 C194.380426,740.965669 190.297188,741.303977 186.367268,740.891888" id="Path-8" stroke="#2C49B0" stroke-width="20" style="mix-blend-mode: multiply;"></path>
                    </g>
                    <g id="水龙头-copy" transform="translate(354.000000, 1136.000000)" fill="#1D2375">
                        <rect id="Rectangle-10" x="81" y="0" width="180" height="110" rx="23"></rect>
                        <rect id="Rectangle-10-Copy" x="0" y="15" width="131" height="86.4285714" rx="27"></rect>
                        <rect id="Rectangle-10" transform="translate(39.811966, 113.250000) rotate(90.000000) translate(-39.811966, -113.250000) " x="-18.4380342" y="92.4380342" width="116.5" height="41.6239316" rx="7"></rect>
                    </g>
                </g>
            </g>
            <g id="02" transform="translate(0.000000, 3047.000000)">
                <g id="background" transform="translate(0.000000, 5.962697)">
                    <rect id="Rectangle-5" fill="#2C49B0" x="0" y="0" width="1600" height="1270.05439"></rect>
                    <g id="Group-11" transform="translate(216.000000, 399.385229)">
                        <mask id="mask-2" fill="white">
                            <use xlink:href="#path-1"></use>
                        </mask>
                        <use id="Mask" fill="#2C49B0" xlink:href="#path-1"></use>
                    </g>
                </g>
            </g>
        </g>
    </g>
</svg>