<?xml version="1.0" encoding="UTF-8"?>
<svg width="1600px" height="980px" viewBox="0 0 1600 980" version="1.1" xmlns="http://www.w3.org/2000/svg" xmlns:xlink="http://www.w3.org/1999/xlink">
    <!-- Generator: Sketch 49.2 (51160) - http://www.bohemiancoding.com/sketch -->
    <title>Ecranhaut-02@3x</title>
    <desc>Created with Sketch.</desc>
    <defs>
        <polygon id="path-1" points="0 0 1600 0 1600 1019 0 1019"></polygon>
        <linearGradient x1="-9.94396544e-16%" y1="49.9952145%" x2="100%" y2="49.9952145%" id="linearGradient-3">
            <stop stop-color="#6A0067" offset="0%"></stop>
            <stop stop-color="#6E006B" offset="16%"></stop>
            <stop stop-color="#7A0077" offset="33%"></stop>
            <stop stop-color="#8E008B" offset="49%"></stop>
            <stop stop-color="#940091" offset="53%"></stop>
            <stop stop-color="#88008D" offset="68%"></stop>
            <stop stop-color="#680081" offset="95%"></stop>
            <stop stop-color="#62007F" offset="100%"></stop>
        </linearGradient>
    </defs>
    <g id="Welcome" stroke="none" stroke-width="1" fill="none" fill-rule="evenodd">
        <g id="Prototype" transform="translate(0.000000, -818.000000)">
            <g id="Ecranhaut-02" transform="translate(0.000000, 779.000000)">
                <mask id="mask-2" fill="white">
                    <use xlink:href="#path-1"></use>
                </mask>
                <g id="Mask"></g>
                <g id="plan2" mask="url(#mask-2)">
                    <g transform="translate(-7.000000, 67.000000)">
                        <g id="2-plan" stroke-width="1" fill="none" transform="translate(7.000000, 234.000000)">
                            <rect id="background" fill="#1D2375" x="0" y="0" width="1600" height="718"></rect>
                            <g id="rivieres" transform="translate(857.000000, 3.000000)" fill="#427CFF">
                                <polygon id="Rectangle-6" transform="translate(92.218723, 385.357196) rotate(19.000000) translate(-92.218723, -385.357196) " points="79.2187234 139.857196 105.218723 139.857196 105.218723 463.915786 105.218723 630.857196 79.2187234 630.857196"></polygon>
                                <polygon id="Rectangle-6-Copy" transform="translate(271.873928, 348.905084) rotate(14.000000) translate(-271.873928, -348.905084) " points="266.203874 72.4705932 290.203874 72.4705932 277.543981 625.339576 253.543981 625.339576"></polygon>
                                <rect id="Rectangle-6-Copy-2" transform="translate(470.111165, 210.856283) rotate(47.000000) translate(-470.111165, -210.856283) " x="457.111165" y="-84.3771026" width="26" height="590.466771"></rect>
                            </g>
                            <g id="souterraine" transform="translate(75.000000, 0.000000)" fill="#2C49B0">
                                <rect id="Rectangle-6" transform="translate(302.822024, 376.254382) rotate(7.000000) translate(-302.822024, -376.254382) " x="289.822024" y="130.754382" width="26" height="491" rx="13"></rect>
                                <rect id="Rectangle-6-Copy-8" transform="translate(465.019309, 376.493522) rotate(22.000000) translate(-465.019309, -376.493522) " x="452.019309" y="130.993522" width="26" height="491" rx="13"></rect>
                                <rect id="Rectangle-6-Copy-3" transform="translate(150.376703, 238.791073) scale(-1, 1) rotate(31.000000) translate(-150.376703, -238.791073) " x="138.556703" y="-32.3987583" width="23.6399994" height="542.379662"></rect>
                            </g>
                            <g id="captages" transform="translate(157.000000, 146.000000)" fill="#42309F">
                                <ellipse id="Oval" cx="278" cy="356.5" rx="36" ry="36.5"></ellipse>
                                <ellipse id="Oval-Copy-8" cx="102" cy="260.5" rx="46" ry="46.5"></ellipse>
                                <ellipse id="Oval-Copy-7" cx="861.5" cy="352" rx="49.5" ry="53"></ellipse>
                                <ellipse id="Oval-Copy" cx="28" cy="83.5" rx="28" ry="28.5"></ellipse>
                                <ellipse id="Oval-Copy-2" cx="318" cy="188.5" rx="28" ry="28.5"></ellipse>
                                <ellipse id="Oval-Copy-9" cx="191" cy="129.5" rx="20" ry="20.5"></ellipse>
                                <ellipse id="Oval-Copy-9" cx="139" cy="393.5" rx="20" ry="20.5"></ellipse>
                                <ellipse id="Oval-Copy-10" cx="876" cy="104.5" rx="20" ry="20.5"></ellipse>
                                <ellipse id="Oval-Copy-12" cx="717" cy="286.5" rx="20" ry="20.5"></ellipse>
                                <ellipse id="Oval-Copy-3" cx="1019" cy="298.5" rx="30" ry="32.5"></ellipse>
                                <ellipse id="Oval-Copy-4" cx="1117.5" cy="153.5" rx="21.5" ry="23.5"></ellipse>
                                <ellipse id="Oval-Copy-13" cx="498" cy="207.5" rx="30" ry="32.5"></ellipse>
                                <ellipse id="Oval-Copy-6" cx="911" cy="182.5" rx="30" ry="32.5"></ellipse>
                                <ellipse id="Oval-Copy-5" cx="1260" cy="32.5" rx="30" ry="32.5"></ellipse>
                                <ellipse id="Oval-Copy-11" cx="1069" cy="22.5" rx="20" ry="20.5"></ellipse>
                            </g>
                        </g>
                        <ellipse id="Oval-3" fill="#4252CB" transform="translate(670.000000, 453.000000) rotate(-38.000000) translate(-670.000000, -453.000000) " cx="670" cy="453" rx="22" ry="33"></ellipse>
                        <g id="02plan-eau" stroke-width="1" fill="none">
                            <g id="Group-10">
                                <g id="Group-9">
                                    <polygon id="Rectangle-2" fill="#0E076E" points="7 254.08816 1607 136.17632 1607 292.567923 7 372"></polygon>
                                    <path d="M2,373.819456 C21.74,384.349456 298.36,408.939456 456.75,467.819456 C651.59,540.319456 675.98,615.199456 757.75,615.199456 C849.95,615.199456 906.18,522.849456 1034.55,454.439456 C1220.75,355.209456 1545.24,311.119456 1597.77,306.619456 C1606.52,305.869456 1603.77,291.619456 1603.77,291.619456 C1603.77,291.619456 2,223.749456 2,354.419456 L2,373.819456 Z" id="Shape" fill="#0E076E"></path>
                                    <path d="M4,93.1955241 C4,93.1955241 95.61,-0.591047501 203.14,27.9584651 C310.67,56.5079777 365.56,167.936441 560.14,112.222209 C754.72,56.5079777 869.61,-46.1185094 1088.14,27.9584651 C1306.67,102.03544 1272.4,-18.318303 1438.68,18.8624576 L1604.96,56.0432182 L1604.96,133.212266 L4.89,278.938084 L4,93.1955241 Z" id="Shape" fill="#420672" fill-rule="nonzero"></path>
                                    <path d="M1607.73,0.677788321 L1563.55,0.677788321 C1519.86,6.58462704 1468,26.0819203 1411.93,55.8051327 C1313.41,108.040489 1213.2,98.0791961 1056.63,67.6944177 C900.06,37.3096393 928,128.32221 802.13,180.018863 C676.26,231.715515 599.59,109.420326 470.69,64.4338427 C341.79,19.447359 265.47,150.097181 91.5,217.019301 C52.5,232.008495 22.75,237.811373 0,237.905882 L0,371.164164 C37.15,370.691617 86.68,370.965694 144.44,373.479645 C273.91,379.15021 783.44,311.62323 783.44,311.62323 L1607.73,164.897356 L1607.73,0.677788321 Z" id="Shape" fill="url(#linearGradient-3)" fill-rule="nonzero"></path>
                                </g>
                            </g>
                        </g>
                        <g id="Rivieres-Copy" stroke-width="1" fill="none" transform="translate(700.000000, 848.000000)">
                            <path d="M364,4.54747351e-13 C349.381717,66 277.021217,94 249.24648,199 C221.471743,304 109.763314,332 84.2485207,367 C67.2386588,390.333333 57.8224852,424.333333 56,469" id="Path-12" stroke="#427CFF" stroke-width="40"></path>
                            <path d="M176,2 C163,34 182.194882,94.5612903 144.130577,190.174194 C106.066272,285.787097 19.6118138,311 10.386578,362 C4.2364208,396 1.46885006,430.666667 2.08386578,466" id="Path-13" stroke="#427CFF" stroke-width="40"></path>
                        </g>
                        <g id="souterraine-copy" stroke-width="1" fill="none" transform="translate(259.000000, 616.000000)">
                            <path d="M5,67 C-4.05144022,213 2.02419816,323.333333 23.2269151,398 C55.0309906,510 272.97326,475 290,625" id="Path-9" stroke="#2C49B0" stroke-width="20"></path>
                            <path d="M56.5,0.5 C36.5074179,131.56984 38.3407513,236.403174 62,315 C97.4888731,432.89524 155,401 240,470 C296.666667,516 323.992047,567.666667 321.97614,625" id="Path-10" stroke="#2C49B0" stroke-width="20"></path>
                            <path d="M97,224 C93,272 98,313 172,369 C246,425 238,402 302,458 C366,514 361,580 354,621" id="Path-11" stroke="#2C49B0" stroke-width="20"></path>
                            <path d="M200,212 C178,274.666667 216.333333,334.333333 315,391 C357.063732,415.158225 381.730399,454.824891 389,510 L383,641" id="Path-12" stroke="#2C49B0" stroke-width="20"></path>
                        </g>
                    </g>
                </g>
            </g>
        </g>
    </g>
</svg>