<?xml version="1.0" encoding="UTF-8"?>
<svg width="1600px" height="492px" viewBox="0 0 1600 492" version="1.1" xmlns="http://www.w3.org/2000/svg" xmlns:xlink="http://www.w3.org/1999/xlink">
    <!-- Generator: Sketch 49.2 (51160) - http://www.bohemiancoding.com/sketch -->
    <title>Ecranbase-bluefonce@3x</title>
    <desc>Created with Sketch.</desc>
    <defs></defs>
    <g id="Welcome" stroke="none" stroke-width="1" fill="none" fill-rule="evenodd">
        <g id="Prototype" transform="translate(0.000000, -6045.000000)">
            <g id="Ecranbase-02" transform="translate(0.000000, 5637.000000)"></g>
            <g id="Ecranbase-01" transform="translate(-79.000000, 5637.000000)">
                <g id="用水量">
                    <g id="Group-7" transform="translate(79.000000, 0.000000)"></g>
                    <g id="水波纹" transform="translate(0.000000, 220.000000)" fill="#1D2375">
                        <path d="M45.3046875,422.78125 C79.984375,368.050784 103.399075,321.200349 287.960938,307.890625 C472.5228,294.580901 600.921875,396.472375 689.265625,324.851563 C777.609375,253.23075 821.328125,150.636722 946.476563,202.429688 C1071.625,254.222653 1264.95947,283.047664 1456.2251,220.313289 C1637.10932,160.983972 1770.8705,352.911 1799.3501,403.239073 C1800.98461,406.127528 1774.36574,345.554158 1775.49072,347.875789 C1789.30843,376.391414 1757.61572,529.770321 1680.4126,808.012511 L81.4125967,800.012511 C34.2208656,585.011981 22.1848958,459.268227 45.3046875,422.78125 Z" id="深蓝色"></path>
                    </g>
                </g>
            </g>
        </g>
    </g>
</svg>