<?xml version="1.0" encoding="UTF-8"?>
<svg width="1600px" height="900px" viewBox="0 0 1600 900" version="1.1" xmlns="http://www.w3.org/2000/svg" xmlns:xlink="http://www.w3.org/1999/xlink">
    <!-- Generator: Sketch 49.2 (51160) - http://www.bohemiancoding.com/sketch -->
    <title>Ecranhaut-01@3x</title>
    <desc>Created with Sketch.</desc>
    <defs>
        <linearGradient x1="0%" y1="50%" x2="100%" y2="50%" id="linearGradient-1">
            <stop stop-color="#0F0663" offset="2%"></stop>
            <stop stop-color="#0D0A7F" offset="45%"></stop>
            <stop stop-color="#0F0663" offset="100%"></stop>
        </linearGradient>
    </defs>
    <g id="Welcome" stroke="none" stroke-width="1" fill="none" fill-rule="evenodd">
        <g id="Prototype" transform="translate(2.000000, 0.000000)" fill-rule="nonzero">
            <g id="Ecranhaut-01" transform="translate(-7.000000, 0.000000)">
                <g id="Group-12">
                    <rect id="Rectangle-path" fill="#FFBED3" style="mix-blend-mode: multiply;" x="6.34" y="0" width="1600" height="676.73"></rect>
                    <path d="M75.68,264.09 L713.87,257.36 L1602.65,257.36 L1602.65,203.5 C1602.65,203.5 1551.33,191.38 1510.94,179.26 C1470.55,167.14 1458.43,200.81 1430.16,199.46 C1401.89,198.11 1195.88,83.67 1154.16,78.28 C1112.44,72.89 1097.61,66.17 1058.57,78.28 C1019.53,90.39 993.94,130.65 932.01,146.88 C870.08,163.11 840.45,129.45 808.14,129.45 C775.83,129.45 681.56,153.62 645.21,167.79 C608.86,181.96 580.58,153.61 549.61,163.07 C518.64,172.53 495.76,204.85 451.33,215.62 C406.9,226.39 357.09,235.81 318.04,231.77 C278.99,227.73 229.18,177.92 208.98,179.26 C188.78,180.6 75.68,264.09 75.68,264.09 Z" id="Shape" fill="#9891ED"></path>
                    <polygon id="Shape" fill="#4C91ED" points="1.25 216.23 65.88 216.23 101.65 216.23 149.99 216.23 163.49 210.06 184.81 210.06 184.81 216.23 209.69 216.23 213.13 219.67 370.56 224.78 370.56 217.42 383.82 217.42 383.82 224.78 403.25 224.78 403.25 210.06 428.84 210.06 446.85 210.06 446.85 221.45 472.43 221.45 472.43 227.63 527.4 227.63 527.4 222.88 543.98 222.88 545.88 215.75 567.2 218.84 567.2 204.83 594.68 204.83 594.68 191.53 627.38 191.53 627.38 201.51 637.33 201.98 637.33 169.69 643.49 169.69 643.49 161.14 660.55 161.14 660.55 168.26 669.08 168.26 669.08 178.24 683.77 178.24 683.77 154.49 724.04 154.49 724.04 195.81 733.99 195.81 733.99 188.21 764.32 188.21 764.32 194.38 773.79 194.38 773.79 212.9 778.06 212.9 778.06 220.98 906 220.03 906 213.85 923.05 213.85 929.69 207.21 946.75 207.21 946.75 211.48 953.38 211.48 953.38 201.98 1012.61 201.98 1012.61 212.9 1019.24 212.9 1019.24 199.37 1025.88 199.37 1025.88 193.43 1048.38 193.43 1048.38 198.66 1058.1 198.66 1058.1 144.99 1066.63 144.99 1066.63 111.51 1093.64 111.51 1093.64 131.69 1105.01 131.69 1105.01 212.9 1111.64 212.9 1111.64 219.79 1138.18 219.55 1138.18 216.7 1149.79 216.7 1149.79 222.16 1158.32 222.16 1158.32 198.89 1189.59 198.89 1187.69 99.64 1195.51 99.64 1195.51 84.68 1200.25 84.68 1200.25 68.53 1217.31 68.53 1217.31 36.47 1220.39 36.47 1220.39 99.16 1228.68 99.16 1228.68 115.78 1249.77 115.78 1249.77 133.83 1254.03 133.83 1254.03 213.38 1259.72 213.38 1259.72 207.92 1285.07 207.92 1285.07 218.84 1296.68 218.84 1296.68 234.75 1319.42 234.75 1319.42 240.45 1340.27 240.45 1340.27 249.47 1364.67 249.47 1364.67 255.41 1518.91 255.41 1604.72 255.41 1604.72 856.98 1.25 856.98"></polygon>
                    <path d="M0.57,265.31 L22.57,265.31 L26.37,274.31 L26.37,280.99 L33.01,280.99 L33.01,273.17 L42.01,273.17 L42.01,280.99 L99.43,280.99 L115.56,269.13 L120.66,273.13 L129.2,273.13 L129.2,265.3 L132.4,258.18 L145.57,258.18 L145.57,252.18 L164.43,252.18 L164.43,243.29 L181.86,243.29 L181.86,246.49 L207.13,246.49 L207.13,254.99 L220.33,254.99 L220.33,245.74 L229.58,245.74 L229.58,236.13 L250.58,236.13 L250.58,228.99 L270.15,228.99 L270.15,243.58 L289.01,243.58 L289.01,334.69 L381.16,334.69 L381.16,265.69 L421.01,265.69 L421.01,258.19 L432.76,258.19 L432.76,228.99 L439.52,228.99 L439.52,218.69 L431.69,218.69 L431.69,187.74 L544.8,187.74 L544.8,220.12 L557.61,220.12 L557.61,292.71 L570.78,292.71 L570.78,239.71 L579.67,239.71 L579.67,290.59 L604.93,290.59 L604.93,282.76 L637.67,282.76 L673.25,267.46 L675.03,270.99 L683.21,270.99 L683.21,266.72 L688.21,266.72 L688.21,247.16 L727.7,247.16 L727.7,252.16 L745.13,252.16 L745.13,232.57 L751.53,232.57 L751.53,193.08 C751.53,193.08 762.21,171.37 778.93,154.65 C795.65,137.93 812.02,132.23 812.02,132.23 L812.02,116.23 L815.22,116.23 L815.22,101.63 L818.43,101.63 L818.43,119.42 L827.33,119.42 L827.33,83.84 L835.52,61.78 L840.14,61.78 L840.14,39.72 L844.41,39.72 L844.41,62.13 L849.04,62.13 L857.22,82.77 L857.22,119.42 L866.12,119.42 L866.12,102.34 L869.33,102.34 L869.33,118.71 L875.02,118.71 L875.02,133.3 C875.02,133.3 902.42,147.53 914.87,173.15 C927.32,198.77 928.33,226.88 928.33,226.88 L935.45,226.88 L935.45,221.88 L953.6,221.88 L953.6,233.99 L956.8,233.99 L956.8,240.39 L933,240.39 L933,245.39 L960.75,245.39 L960.75,256.07 L969.33,256.07 L969.33,247.88 L979.65,247.88 L979.65,242.19 L984.65,242.19 L984.65,235.78 L1010.27,235.78 L1010.27,243.61 L1020.27,243.61 L1036.99,238.99 L1093.21,238.99 L1093.21,235.07 L1109.93,235.07 L1109.93,240.41 L1159.04,240.41 L1159.04,244.32 L1192.48,244.32 L1218.28,270.12 L1606.03,270.12 L1606.03,790.59 L0.57,790.59 L0.57,265.31 Z" id="Shape" fill="#2C49B0"></path>
                    <polygon id="Shape" fill="url(#linearGradient-1)" points="0.76 402.2 132.61 402.2 132.61 457.49 188.02 457.49 188.02 402.2 251.13 402.2 251.13 322.33 278.07 293.92 295 293.92 295 280.1 305.78 280.1 305.78 269.35 309.24 269.35 309.24 279.72 321.94 279.72 321.94 290.85 342.72 290.85 365.43 313.52 365.43 379.16 443.54 379.16 443.54 416.79 426.22 416.79 426.22 470.54 517.81 470.54 517.81 312.74 627.48 312.74 627.48 302.75 639.6 290.66 647.11 290.66 647.11 280.48 650.57 280.48 650.57 291.62 658.27 291.62 670.39 303.71 670.39 311.58 676.74 311.58 676.74 408.34 685.01 416.6 685.01 440.6 774.1 440.6 774.1 397.59 750.62 397.59 750.62 365.34 862.99 365.34 862.99 411.8 888.42 411.8 888.42 283.94 996.9 283.94 996.9 356.89 1023.45 356.89 1023.45 431 1124.66 431 1124.66 409.88 1133.13 401.43 1133.13 396.06 1137.74 396.06 1137.74 400.66 1146.79 409.69 1146.79 430.61 1155.83 430.61 1155.83 482.83 1213.94 482.83 1213.94 429.94 1275.03 429.94 1275.03 292 1265.79 292 1265.79 273.86 1288.88 273.86 1288.88 227.78 1296.38 208.49 1292.34 208.49 1292.34 195.82 1322.36 176.24 1322.36 162.99 1326.11 162.99 1326.11 176.53 1354.11 194.09 1354.11 208.2 1348.62 208.2 1357.86 227.21 1357.86 275.88 1384.12 275.88 1384.12 291.71 1378.35 291.71 1378.35 383.58 1485.42 383.58 1485.42 484.37 1538.53 484.37 1538.53 353.63 1607.73 353.63 1607.73 917.11 0.76 917.11"></polygon>
                    <rect id="Rectangle-path" fill="#E7808F" x="81.75" y="454.81" width="21.55" height="52.22"></rect>
                    <rect id="Rectangle-path" fill="#E7808F" x="236.04" y="454.81" width="13.51" height="32.73"></rect>
                    <rect id="Rectangle-path" fill="#FFCEAB" x="306.48" y="376.48" width="12.34" height="27.42"></rect>
                    <rect id="Rectangle-path" fill="#477BB5" x="306.48" y="418.45" width="12.34" height="26.3"></rect>
                    <rect id="Rectangle-path" fill="#E7808F" x="602.79" y="425.99" width="11.54" height="20.73"></rect>
                    <rect id="Rectangle-path" fill="#FFCEAB" x="549.69" y="461.72" width="20.01" height="45.31"></rect>
                    <rect id="Rectangle-path" fill="#477BB5" x="655.12" y="498.58" width="14.62" height="33.02"></rect>
                    <rect id="Rectangle-path" fill="#477BB5" x="682.83" y="498.58" width="14.62" height="33.02"></rect>
                    <rect id="Rectangle-path" fill="#477BB5" x="705.53" y="498.58" width="14.62" height="33.02"></rect>
                    <rect id="Rectangle-path" fill="#477BB5" x="924.5" y="361.12" width="8.47" height="24.57"></rect>
                    <rect id="Rectangle-path" fill="#477BB5" x="936.81" y="361.12" width="11.16" height="24.57"></rect>
                    <path d="M947.96,358.25 C947.774761,351.907759 942.579945,346.862454 936.235,346.862454 C929.890055,346.862454 924.695239,351.907759 924.51,358.25 L947.96,358.25 Z" id="Shape" fill="#477BB5"></path>
                    <rect id="Rectangle-path" fill="#477BB5" x="906.79" y="407.01" width="10.97" height="34.56"></rect>
                    <rect id="Rectangle-path" fill="#477BB5" x="931.33" y="407.01" width="10.97" height="34.56"></rect>
                    <rect id="Rectangle-path" fill="#477BB5" x="955.38" y="407.01" width="10.97" height="34.56"></rect>
                    <rect id="Rectangle-path" fill="#477BB5" x="979.05" y="407.01" width="10.97" height="34.56"></rect>
                    <rect id="Rectangle-path" fill="#477BB5" x="900.63" y="451.16" width="94.28" height="7.3"></rect>
                    <rect id="Rectangle-path" fill="#477BB5" x="450.02" y="551.18" width="15.01" height="31.68"></rect>
                    <rect id="Rectangle-path" fill="#477BB5" x="474.84" y="551.18" width="12.7" height="31.68"></rect>
                    <rect id="Rectangle-path" fill="#477BB5" x="499.08" y="551.18" width="12.12" height="31.68"></rect>
                    <rect id="Rectangle-path" fill="#477BB5" x="856.96" y="582.86" width="11.54" height="27.07"></rect>
                    <rect id="Rectangle-path" fill="#477BB5" x="884.09" y="582.86" width="8.66" height="27.07"></rect>
                    <rect id="Rectangle-path" fill="#477BB5" x="901.31" y="582.86" width="10.97" height="27.07"></rect>
                    <polygon id="Shape" fill="#477BB5" points="832.72 536.21 944.12 536.21 942.3 498.58 856.96 498.58"></polygon>
                    <rect id="Rectangle-path" fill="#477BB5" x="1053.79" y="503.96" width="12.12" height="32.25"></rect>
                    <rect id="Rectangle-path" fill="#477BB5" x="1076.88" y="503.96" width="13.85" height="32.25"></rect>
                    <rect id="Rectangle-path" fill="#477BB5" x="1112.12" y="503.96" width="12.7" height="32.25"></rect>
                    <rect id="Rectangle-path" fill="#477BB5" x="1048.02" y="476.89" width="67.53" height="8.06"></rect>
                    <rect id="Rectangle-path" fill="#477BB5" x="1226.13" y="490.13" width="11.54" height="29.95"></rect>
                    <rect id="Rectangle-path" fill="#FFCEAB" x="1256.39" y="490.13" width="13.28" height="29.95"></rect>
                    <ellipse id="Oval" fill="#FFCEAB" cx="1328.28" cy="376.99" rx="19.36" ry="19.32"></ellipse>
                    <rect id="Rectangle-path" fill="#477BB5" x="1397.81" y="427.93" width="80.23" height="14.97"></rect>
                    <path d="M1336.76,426.35 C1335.93993,421.466206 1331.71217,417.889166 1326.76,417.889166 C1321.80783,417.889166 1317.58007,421.466206 1316.76,426.35 L1316.6,426.35 L1316.6,470.41 L1336.95,470.41 L1336.95,426.35 L1336.76,426.35 Z" id="Shape" fill="#477BB5"></path>
                    <path d="M1406.45,481.84 C1405.7485,477.329512 1401.86471,474.00306 1397.3,474.00306 C1392.73529,474.00306 1388.8515,477.329512 1388.15,481.84 L1388,481.84 L1388,522.1 L1406.59,522.1 L1406.59,481.84 L1406.45,481.84 Z" id="Shape" fill="#E7808F"></path>
                    <path d="M1436.82,481.84 C1436.1185,477.329512 1432.23471,474.00306 1427.67,474.00306 C1423.10529,474.00306 1419.2215,477.329512 1418.52,481.84 L1418.38,481.84 L1418.38,522.1 L1436.97,522.1 L1436.97,481.84 L1436.82,481.84 Z" id="Shape" fill="#E7808F"></path>
                    <path d="M1467.2,481.84 C1466.4985,477.329512 1462.61471,474.00306 1458.05,474.00306 C1453.48529,474.00306 1449.6015,477.329512 1448.9,481.84 L1448.75,481.84 L1448.75,522.1 L1467.33,522.1 L1467.33,481.84 L1467.2,481.84 Z" id="Shape" fill="#E7808F"></path>
                    <rect id="Rectangle-path" fill="#E7808F" x="1571.75" y="444.1" width="11.54" height="20.7"></rect>
                    <rect id="Rectangle-path" fill="#477BB5" x="990.01" y="528.53" width="4.9" height="23.04"></rect>
                    <rect id="Rectangle-path" fill="#477BB5" x="746.84" y="466.56" width="14.62" height="17.81"></rect>
                    <rect id="Rectangle-path" fill="#477BB5" x="774.54" y="466.56" width="14.62" height="17.81"></rect>
                    <rect id="Rectangle-path" fill="#477BB5" x="797.25" y="466.56" width="14.62" height="17.81"></rect>
                    <path d="M806.89,406.07 C806.344113,402.11149 802.960973,399.162875 798.965,399.162875 C794.969027,399.162875 791.585887,402.11149 791.04,406.07 L790.91,406.07 L790.91,440.78 L807.01,440.78 L807.01,406.07 L806.89,406.07 Z" id="Shape" fill="#477BB5"></path>
                    <path d="M835.15,406.07 C834.61,402.25 831.7,399.32 828.15,399.32 C824.6,399.32 821.7,402.25 821.15,406.07 L821.04,406.07 L821.04,440.78 L835.22,440.78 L835.22,406.07 L835.15,406.07 Z" id="Shape" fill="#FFCEAB"></path>
                    <rect id="Rectangle-path" fill="#477BB5" x="235.49" y="513.68" width="14.62" height="33.02"></rect>
                    <rect id="Rectangle-path" fill="#477BB5" x="263.19" y="513.68" width="14.62" height="33.02"></rect>
                    <rect id="Rectangle-path" fill="#477BB5" x="285.9" y="513.68" width="14.62" height="33.02"></rect>
                    <rect id="Rectangle-path" fill="#1D2375" x="1.65" y="626.33" width="1602.68" height="296.86"></rect>
                    <path d="M243.79,115.82 L936.54,115.82 L848.11,101.08 C848.11,101.08 811.26,23.7 781.78,19.99 C752.3,16.28 543.4,79.79 543.4,79.79 C543.4,79.79 514.35,67.43 504.09,67.79 C478.33,68.87 408.33,105.58 408.33,105.58 L243.79,115.82 Z" id="Shape" fill="#FFE1F5" style="mix-blend-mode: multiply;"></path>
                    <path d="M949.69,167.65 L1527.33,167.65 L1389.96,154.19 C1389.96,154.19 1333.41,119.19 1313.22,119.19 C1293.03,119.19 1188,150.19 1188,150.19 C1188,150.19 1147.61,140.76 1132.8,143.46 C1117.99,146.16 1072.21,156.92 1072.21,156.92 L949.69,167.65 Z" id="Shape" fill="#FAFFFF"></path>
                    <path d="M263.01,178.05 L596.91,178.05 C596.91,178.05 543.26,145.74 525.65,145.74 C508.04,145.74 386.87,161.9 386.87,161.9 C386.87,161.9 385.53,144.39 373.41,145.74 C361.29,147.09 263.01,178.05 263.01,178.05 Z" id="Shape" fill="#FAFFFF"></path>
                    <path d="M1116.44,296.21 L1528.14,296.21 C1528.14,296.21 1420.81,281.79 1407.99,276.99 C1395.17,272.19 1399.99,246.56 1383.99,246.56 C1367.99,246.56 1322.33,267.91 1322.33,267.91 C1322.33,267.91 1299.1,265.25 1283.08,267.91 C1267.06,270.57 1116.44,296.21 1116.44,296.21 Z" id="Shape" fill="#FFE1F5"></path>
                    <rect id="Rectangle-path" fill="#0E076E" x="0.76" y="896.23" width="1602.68" height="276.9"></rect>
                    <path d="M516.08,257.91 C516.08,265.99 515.84,271.75 517.2,273.43 C518.32,274.95 519.84,275.35 526.48,275.35 C530.89,275.35 533.48,275.27 535.69,274.07 C537.61,273.19 538.97,271.07 539.85,267.35 C540.09,266.47 540.24,265.83 540.85,265.83 C541.46,265.83 541.48,266.23 541.48,267.35 C541.48,269.19 540.61,276.79 539.81,279.11 C539.16,281.19 538.53,281.27 535.32,281.27 C524.32,281.27 516.84,280.79 508.32,280.79 C504.56,280.79 500.24,281.03 495.84,281.03 C494.72,281.03 494.08,280.87 494.08,280.15 C494.08,279.67 494.56,279.43 495.68,279.43 C496.68,279.35 497.52,279.27 498.4,279.11 C501.28,278.63 501.4,277.19 501.6,270.79 C501.76,267.59 501.84,262.79 501.84,257.79 L501.84,243.75 C501.84,230.75 501.76,229.27 501.6,226.75 C501.44,224.51 500.88,223.15 498.88,222.59 C497.857067,222.346734 496.811217,222.21265 495.76,222.19 C494.88,222.19 494.08,222.03 494.08,221.39 C494.08,220.75 494.88,220.59 496.48,220.59 C501.04,220.59 505.2,220.83 508.32,220.83 C509.04,220.83 518.96,220.59 521.84,220.59 C523.28,220.59 523.76,220.83 523.76,221.31 C523.76,222.03 522.96,222.19 521.84,222.19 C520.927194,222.235676 520.018484,222.342583 519.12,222.51 C516.96,222.91 516.4,224.43 516.24,227.23 C516.08,229.79 516,231.39 516,244.59 L516.08,257.91 Z" id="Shape" stroke="#FFECCD" fill="#FFECCD"></path>
                    <path d="M555.6,243.75 C555.6,230.75 555.52,229.11 555.36,226.55 C555.2,224.23 554.48,222.87 552.48,222.39 C551.76,222.23 550.64,222.23 549.84,222.15 C548.84,222.07 548.4,221.75 548.4,221.27 C548.4,220.79 548.88,220.55 550.16,220.55 C554.72,220.55 558.56,220.79 562.08,220.79 L584.64,220.71 C586.086086,220.714572 587.53037,220.607588 588.96,220.39 C589.37326,220.235488 589.802647,220.128141 590.24,220.07 C590.64,220.07 590.72,220.39 590.72,220.79 C590.72,221.19 590.56,221.99 590.32,224.31 C590.08,225.91 589.92,228.71 589.68,232.87 C589.68,233.51 589.36,233.99 588.88,233.99 C588.4,233.99 588.16,233.59 588.08,232.87 C588.088193,231.921865 587.953343,230.977916 587.68,230.07 C587.28,228.23 586.24,227.19 582.4,226.87 C579.76,226.63 572.8,226.47 570.4,226.47 C569.92,226.47 569.76,226.71 569.76,227.27 L569.76,244.87 C569.76,245.43 569.84,245.87 570.4,245.87 C572.64,245.95 579.12,245.87 582,245.79 C585.92,245.63 587,245.39 587.84,243.95 C588.32,243.23 588.56,242.95 588.96,242.95 C589.36,242.95 589.44,243.43 589.44,243.95 C589.44,244.75 589.04,247.63 588.8,250.75 C588.72,252.59 588.72,256.51 588.72,257.39 C588.72,258.39 588.48,258.91 588,258.91 C587.52,258.91 587.28,258.35 587.12,257.63 C586.96,256.91 586.96,256.43 586.88,255.79 C586.56,253.47 585.44,252.11 581.52,251.87 C579.28,251.71 572.72,251.55 570.24,251.55 C569.84,251.55 569.76,251.95 569.76,252.55 L569.76,257.99 C569.76,260.71 569.68,265.43 569.76,268.47 C569.84,274.07 570.96,275.35 579.84,275.35 C582.358833,275.442407 584.874961,275.104217 587.28,274.35 C589.52,273.47 590.48,271.71 591.2,268.03 C591.36,267.07 591.693333,266.59 592.2,266.59 C592.84,266.59 592.92,267.39 592.92,268.35 C592.78878,271.952447 592.360662,275.537934 591.64,279.07 C591.08,281.15 590.52,281.23 587.56,281.23 C576.56,281.23 570.56,280.75 562.12,280.75 C558.36,280.75 555,280.99 550.6,280.99 C549.16,280.99 548.68,280.75 548.68,280.19 C548.68,279.79 549.08,279.39 550.28,279.39 C551.086934,279.344104 551.889231,279.237131 552.68,279.07 C554.92,278.75 555.24,275.71 555.4,270.67 C555.56,267.47 555.64,262.75 555.64,257.79 L555.6,243.75 Z" id="Shape" stroke="#FFECCD" fill="#FFECCD"></path>
                    <path d="M672.72,243.75 C672.72,234.95 672.72,229.11 672.48,226.55 C672.32,224.31 671.6,222.87 669.68,222.47 C668.689125,222.290433 667.686457,222.183482 666.68,222.15 C665.68,222.15 665.24,221.83 665.24,221.35 C665.24,220.87 665.48,220.55 667,220.55 C670.44,220.55 678.6,220.79 680,220.79 C683.84,220.79 688.32,220.55 692,220.55 C702.88,220.55 708.16,223.11 711.36,226.07 C714.19789,228.874368 715.7597,232.721046 715.68,236.71 C715.68,249.03 704.4,255.71 693.36,255.71 C692.527556,255.709587 691.697076,255.629218 690.88,255.47 C690.4,255.31 690,255.15 690,254.67 C690,254.19 690.32,253.87 691.76,253.87 C698.4,253.87 701.6,248.67 701.6,241.47 C701.6,235.95 700.6,231.55 697.68,228.47 C695.724842,226.350623 692.963302,225.1588 690.08,225.19 C689.356721,225.180535 688.633991,225.23407 687.92,225.35 C687.28,225.51 686.92,225.99 686.92,227.35 L686.92,257.91 C686.92,264.15 686.92,271.43 687.32,274.79 C687.48,277.11 688.04,278.63 690.44,279.11 C691.604319,279.313326 692.779747,279.446897 693.96,279.51 C695.16,279.51 695.48,279.75 695.48,280.39 C695.48,280.79 695.08,281.11 693.88,281.11 C688.36,281.11 679.88,280.87 679.16,280.87 C678.76,280.87 670.04,281.11 667.32,281.11 C666.2,281.11 665.72,280.87 665.72,280.31 C665.72,279.75 666.36,279.51 667.24,279.51 C668.12,279.51 668.84,279.35 669.64,279.19 C671.24,278.87 671.96,277.75 672.28,274.71 C672.6,271.35 672.76,265.71 672.76,257.91 L672.72,243.75 Z" id="Shape" stroke="#FFECCD" fill="#FFECCD"></path>
                    <path d="M761.92,255.75 C761.92,266.75 763.6,271.43 768,274.55 C770.357583,276.13497 773.162155,276.92025 776,276.79 C779.197362,276.872274 782.318703,275.808181 784.8,273.79 C789.33,269.99 789.33,261.59 789.33,253.35 L789.33,243.75 C789.33,231.99 789.33,229.91 789.17,227.35 C789.01,224.35 788.37,222.95 785.73,222.47 C784.85,222.31 784.37,222.31 782.73,222.15 C781.73,222.15 781.29,221.83 781.29,221.35 C781.29,220.87 781.69,220.55 783.13,220.55 C787.69,220.55 792.57,220.79 793.85,220.79 C795.29,220.79 800.49,220.55 804.41,220.55 C805.61,220.55 806.09,220.79 806.09,221.35 C806.09,221.75 805.77,222.07 804.73,222.15 C803.896327,222.192652 803.067194,222.299636 802.25,222.47 C800.09,222.87 799.45,224.07 799.25,227.35 C799.09,229.91 799.01,231.99 799.01,243.75 L799.01,251.59 C799.01,260.71 798.61,270.59 790.85,276.87 C785.85,281.03 779.65,282.15 774.21,282.15 C767.21,282.15 760.13,281.15 755.21,276.79 C750.97,273.27 747.77,267.43 747.77,255.91 L747.77,243.75 C747.77,231.35 747.77,229.11 747.53,226.55 C747.37,224.31 746.89,223.27 745.05,222.71 C743.922705,222.419321 742.771286,222.231881 741.61,222.15 C740.41,222.07 739.93,221.75 739.93,221.27 C739.93,220.79 740.57,220.55 742.09,220.55 C745.53,220.55 753.61,220.79 754.33,220.79 C755.05,220.79 764.49,220.55 767.33,220.55 C768.69,220.55 769.09,220.79 769.09,221.27 C769.09,221.91 768.69,222.07 767.65,222.15 C766.93,222.23 765.81,222.31 765.01,222.47 C762.77,222.95 762.37,224.63 762.21,227.19 C762.05,229.75 761.97,233.51 761.97,243.75 L761.92,255.75 Z" id="Shape" stroke="#FFECCD" fill="#FFECCD"></path>
                    <path d="M839.44,243.75 C839.44,231.35 839.44,229.03 839.2,226.47 C839.04,224.23 838.2,222.79 836.4,222.47 C835.611267,222.291289 834.808003,222.184188 834,222.15 C833,222.15 832.48,221.83 832.48,221.27 C832.48,220.71 832.88,220.55 834.24,220.55 C837.44,220.55 845.24,220.79 845.92,220.79 C846.6,220.79 856.08,220.55 858.92,220.55 C860.28,220.55 860.68,220.87 860.68,221.35 C860.68,221.99 859.96,222.15 859.16,222.15 C858.36,222.15 857.88,222.23 856.84,222.39 C854.76,222.79 853.96,223.83 853.84,226.71 C853.6,229.27 853.6,231.35 853.6,243.71 L853.6,257.79 C853.6,264.11 853.68,271.55 854,274.91 C854.16,276.99 854.64,278.43 857,278.99 C858.163027,279.202177 859.33902,279.335812 860.52,279.39 C861.88,279.39 862.2,279.71 862.2,280.19 C862.2,280.67 861.8,280.99 860.52,280.99 C855.08,280.99 846.52,280.75 845.8,280.75 C845.4,280.75 837,280.99 834.28,280.99 C833,280.99 832.36,280.83 832.36,280.19 C832.36,279.55 833,279.39 833.96,279.39 C834.76,279.31 835.56,279.23 836.44,279.07 C838.12,278.83 838.68,277.07 838.92,274.75 C839.24,271.39 839.4,265.63 839.4,257.75 L839.44,243.75 Z" id="Shape" stroke="#FFECCD" fill="#FFECCD"></path>
                    <path d="M922,257.83 C922,264.07 922,271.51 922.4,274.83 C922.56,276.91 923.12,278.59 925.52,278.99 C926.52,279.15 927.52,279.23 928.96,279.39 C930.24,279.47 930.56,279.71 930.56,280.27 C930.56,280.83 930.16,280.99 928.72,280.99 C923.28,280.99 915.52,280.75 914.24,280.75 C912.96,280.75 905.12,280.99 902.48,280.99 C901.2,280.99 900.64,280.83 900.64,280.19 C900.64,279.55 901.28,279.39 902.24,279.39 C903.04,279.31 903.92,279.23 904.8,279.07 C906.56,278.75 907.12,276.99 907.36,274.67 C907.68,271.31 907.84,265.55 907.84,257.79 L907.84,226.47 C904.72,226.47 899.76,226.39 895.76,226.63 C891.28,226.87 889.52,227.91 888.48,230.71 C888.2029,231.308161 887.962455,231.92263 887.76,232.55 C887.6,233.19 887.36,233.83 886.76,233.83 C886.04,233.83 886.04,233.19 886.12,232.23 C886.44,228.95 887.32,224.63 887.88,221.59 C888.04,220.39 888.28,219.59 888.76,219.59 C889.678516,219.749401 890.586776,219.963109 891.48,220.23 C894.422697,220.629818 897.390389,220.81697 900.36,220.79 L935.16,220.79 C936.832344,220.809272 938.503757,220.702301 940.16,220.47 C940.975997,220.259098 941.80424,220.098793 942.64,219.99 C943.36,219.99 943.44,220.47 943.44,222.47 C943.44,223.59 942.96,231.03 942.88,233.03 C942.8,234.15 942.56,234.63 942.08,234.63 C941.44,234.63 941.28,234.15 941.2,233.19 C941.12,232.23 941.12,231.99 941.04,231.59 C940.72,229.11 939.52,227.19 934.8,226.87 C932.16,226.63 928,226.47 921.92,226.47 L922,257.83 Z" id="Shape" stroke="#FFECCD" fill="#FFECCD"></path>
                    <path d="M503.01,339.75 C503.01,327.99 503.01,325.75 502.85,323.19 C502.69,320.87 502.29,318.71 499.24,318.39 C498.61,318.31 497.81,318.31 496.24,318.15 C495.05,318.07 494.73,317.67 494.73,317.27 C494.73,316.87 495.2,316.55 496.57,316.55 C498.57,316.55 505.93,316.79 509.44,316.79 C512.09,316.79 515.69,316.71 522.44,316.63 C536.12,316.71 546.84,318.47 554.12,325.91 C558.2,329.99 561.8,336.71 561.8,346.23 C561.8,355.91 557.56,363.83 553,368.15 C549.08,372.15 541.72,377.67 525.64,377.67 C522.44,377.67 519.72,377.59 517.08,377.35 C513.96,377.03 510.68,376.79 509.16,376.79 C507.24,376.79 505.32,376.79 503.08,376.87 C500.84,376.95 499.8,377.03 497.56,377.03 C496.19,377.03 495.96,376.63 495.96,376.23 C495.96,375.67 496.6,375.43 497.47,375.43 C498.305639,375.373085 499.137124,375.266227 499.96,375.11 C501.56,374.87 502.35,373.35 502.6,370.23 C502.84,366.39 503,360.71 503,353.83 L503.01,339.75 Z M517.17,348.75 C517.17,357.23 517.25,362.75 517.33,364.27 C517.49,367.55 517.81,369.15 518.69,370.03 C520.13,371.79 523.41,372.91 526.93,372.91 C532.53,372.91 537.25,371.71 541.49,367.31 C545.65,363.15 546.69,356.03 546.69,348.51 C546.665811,341.924397 544.566331,335.513985 540.69,330.19 C536.298005,324.51563 529.462908,321.276389 522.29,321.47 C520.822199,321.40269 519.355239,321.620017 517.97,322.11 C517.33,322.43 517.25,322.83 517.25,323.55 C517.33,326.27 517.17,332.03 517.17,338.55 L517.17,348.75 Z" id="Shape" stroke="#FFECCD" fill="#FFECCD"></path>
                    <path d="M578.69,339.75 C578.69,326.75 578.61,325.11 578.44,322.55 C578.28,320.23 577.57,318.87 575.57,318.39 C574.85,318.23 573.73,318.23 572.92,318.15 C571.92,318.07 571.48,317.75 571.48,317.27 C571.48,316.79 571.96,316.55 573.24,316.55 C577.81,316.55 581.65,316.79 585.16,316.79 L607.73,316.71 C609.176086,316.714572 610.62037,316.607588 612.05,316.39 C612.46326,316.235488 612.892647,316.128141 613.33,316.07 C613.73,316.07 613.81,316.39 613.81,316.79 C613.81,317.19 613.65,317.99 613.41,320.31 C613.17,321.91 613.01,324.71 612.77,328.87 C612.77,329.51 612.45,329.99 611.97,329.99 C611.49,329.99 611.25,329.59 611.17,328.87 C611.178193,327.921865 611.043343,326.977916 610.77,326.07 C610.37,324.23 609.33,323.19 605.49,322.87 C602.85,322.63 595.89,322.47 593.49,322.47 C593.02,322.47 592.86,322.71 592.86,323.27 L592.86,340.87 C592.86,341.43 592.94,341.87 593.49,341.87 C595.74,341.95 602.22,341.87 605.1,341.79 C609.02,341.63 610.1,341.39 610.94,339.95 C611.42,339.23 611.66,338.95 612.06,338.95 C612.46,338.95 612.54,339.43 612.54,339.95 C612.54,340.75 612.14,343.63 611.9,346.75 C611.82,348.59 611.82,352.51 611.82,353.39 C611.82,354.39 611.58,354.91 611.1,354.91 C610.62,354.91 610.38,354.35 610.22,353.63 C610.06,352.91 610.06,352.43 609.98,351.79 C609.66,349.47 608.54,348.11 604.62,347.87 C602.38,347.71 595.82,347.55 593.34,347.55 C592.94,347.55 592.86,347.95 592.86,348.55 L592.86,353.99 C592.86,356.71 592.78,361.43 592.86,364.47 C592.94,370.07 594.06,371.35 602.94,371.35 C605.458833,371.442407 607.974961,371.104217 610.38,370.35 C612.62,369.47 613.58,367.71 614.3,364.03 C614.46,363.07 614.793333,362.59 615.3,362.59 C615.94,362.59 616.02,363.39 616.02,364.35 C615.88878,367.952447 615.460662,371.537934 614.74,375.07 C614.18,377.15 613.62,377.23 610.66,377.23 C599.66,377.23 593.66,376.75 585.21,376.75 C581.45,376.75 578.09,376.99 573.7,376.99 C572.25,376.99 571.78,376.75 571.78,376.19 C571.78,375.79 572.17,375.39 573.37,375.39 C574.180183,375.343511 574.985759,375.236547 575.78,375.07 C578.02,374.75 578.33,371.71 578.49,366.67 C578.66,363.47 578.74,358.75 578.74,353.79 L578.69,339.75 Z" id="Shape" stroke="#FFECCD" fill="#FFECCD"></path>
                    <path d="M662.2,339.75 C662.2,330.95 662.2,325.11 661.96,322.55 C661.8,320.31 661.08,318.87 659.16,318.47 C658.169125,318.290433 657.166457,318.183482 656.16,318.15 C655.16,318.15 654.72,317.83 654.72,317.35 C654.72,316.87 654.96,316.55 656.48,316.55 C659.92,316.55 668.08,316.79 669.48,316.79 C673.32,316.79 677.81,316.55 681.48,316.55 C692.36,316.55 697.65,319.11 700.85,322.07 C703.683902,324.877028 705.244986,328.72192 705.17,332.71 C705.17,345.03 693.89,351.71 682.85,351.71 C682.014253,351.709429 681.18047,351.629064 680.36,351.47 C679.89,351.31 679.48,351.15 679.48,350.67 C679.48,350.19 679.81,349.87 681.24,349.87 C687.89,349.87 691.09,344.67 691.09,337.47 C691.09,331.95 690.09,327.55 687.17,324.47 C685.211013,322.35012 682.446266,321.158481 679.56,321.19 C678.836735,321.180988 678.114044,321.23452 677.4,321.35 C676.77,321.51 676.4,321.99 676.4,323.35 L676.4,353.91 C676.4,360.15 676.4,367.43 676.81,370.79 C676.96,373.11 677.52,374.63 679.93,375.11 C681.090886,375.313834 682.263018,375.44741 683.44,375.51 C684.65,375.51 684.97,375.75 684.97,376.39 C684.97,376.79 684.56,377.11 683.36,377.11 C677.85,377.11 669.36,376.87 668.65,376.87 C668.24,376.87 659.52,377.11 656.8,377.11 C655.68,377.11 655.2,376.87 655.2,376.31 C655.2,375.75 655.84,375.51 656.72,375.51 C657.6,375.51 658.32,375.35 659.12,375.19 C660.72,374.87 661.44,373.75 661.76,370.71 C662.08,367.35 662.24,361.71 662.24,353.91 L662.2,339.75 Z" id="Shape" stroke="#FFECCD" fill="#FFECCD"></path>
                    <path d="M731.24,360.47 C730.84,360.47 730.68,360.63 730.52,361.03 L728.04,367.59 C727.362701,369.224048 726.931347,370.949464 726.76,372.71 C726.76,374.23 727.48,374.95 729.16,375.11 C730.04,375.27 731.32,375.35 731.96,375.43 C733.16,375.43 733.4,375.83 733.4,376.23 C733.4,376.87 732.76,377.03 731.72,377.03 C728.12,377.03 725.4,376.79 721.16,376.79 C720.28,376.79 715,377.03 711,377.03 C709.88,377.03 709.4,376.71 709.4,376.23 C709.4,375.59 709.96,375.43 710.92,375.43 C711.778785,375.372737 712.633543,375.265892 713.48,375.11 C716.28,374.55 717.88,372.11 719.56,368.23 L740.92,319.91 C742.44,316.47 743.32,315.27 744.2,315.27 C745.08,315.27 745.72,316.39 747.08,319.27 C749.16,323.75 762.6,354.39 768.08,366.55 C770.8,372.79 772.56,374.71 775.36,375.11 C776.203328,375.285403 777.059444,375.392417 777.92,375.43 C778.92,375.43 779.44,375.75 779.44,376.23 C779.44,376.71 778.88,377.03 777.36,377.03 C769.52,377.03 760.36,376.87 755.28,376.79 C754,376.79 753.52,376.55 753.52,376.07 C753.52,375.59 753.92,375.27 754.64,375.07 C755.52,374.91 755.84,374.35 755.64,373.63 L750.2,360.99 C750.116082,360.706218 749.855928,360.511103 749.56,360.51 L731.24,360.47 Z M747.24,354.07 C747.72,354.07 747.72,353.83 747.64,353.67 L740.64,336.55 C740.4,335.99 740.24,336.15 740.08,336.55 L733.28,353.67 C733.2,353.91 733.36,354.07 733.6,354.07 L747.24,354.07 Z" id="Shape" stroke="#FFECCD" fill="#FFECCD"></path>
                    <path d="M792.84,339.75 C792.84,327.35 792.68,325.75 792.6,323.19 C792.44,319.91 791.48,318.87 789.6,318.47 C788.539691,318.307225 787.471545,318.20041 786.4,318.15 C785.4,318.07 784.96,317.75 784.96,317.27 C784.96,316.79 785.52,316.55 786.72,316.55 C790.16,316.55 797.84,316.79 798.96,316.79 C800.48,316.79 808.16,316.55 811.84,316.55 C819.36,316.55 824.64,317.27 828.16,319.27 C832.701311,321.650046 835.51656,326.383377 835.44,331.51 C835.44,338.23 831.6,343.35 824.72,347.59 C829.6,354.59 835.44,363.19 840.32,368.79 C844.56,373.51 846.48,374.87 848.72,375.19 C849.6,375.35 850.08,375.35 850.72,375.43 C851.6,375.43 852.08,375.75 852.08,376.23 C852.08,376.95 851.28,377.03 850.48,377.03 L843.28,377.03 C835.04,377.03 831.52,376.23 828.72,374.39 C826.16,372.87 823.6,369.39 820.48,364.39 C816.8,358.31 814.96,355.03 813.48,352.87 C813.239796,352.562765 812.86996,352.385244 812.48,352.39 L807.2,352.39 C806.8,352.39 806.56,352.55 806.56,353.03 L806.56,357.11 C806.442626,361.593954 806.576168,366.080963 806.96,370.55 C807.12,372.63 807.68,374.39 810.08,374.95 C811.262629,375.220678 812.467765,375.381363 813.68,375.43 C814.96,375.51 815.12,375.83 815.12,376.31 C815.12,376.79 814.56,377.03 813.44,377.03 C808.08,377.03 799.36,376.79 798.8,376.79 C797.8,376.79 790.08,377.03 787.36,377.03 C786.16,377.03 785.76,376.79 785.76,376.23 C785.76,375.67 786.32,375.43 787.2,375.43 C788.08,375.43 789.04,375.27 789.92,375.11 C791.52,374.71 792.16,373.27 792.4,370.55 C792.72,367.19 792.8,361.55 792.8,353.83 L792.84,339.75 Z M806.6,345.11 C806.547967,345.625266 806.840868,346.113434 807.32,346.31 C809.275723,347.088981 811.378289,347.430307 813.48,347.31 C815.242309,347.447444 817.000517,346.997343 818.48,346.03 C820.16,344.75 821.6,341.31 821.6,335.95 C821.6,324.59 814.4,321.63 810.24,321.63 C809.163371,321.577562 808.084926,321.685407 807.04,321.95 C806.72,322.11 806.56,322.19 806.56,322.83 L806.6,345.11 Z" id="Shape" stroke="#FFECCD" fill="#FFECCD"></path>
                    <path d="M864.04,339.75 C864.04,327.35 864.04,325.03 863.8,322.47 C863.64,320.23 862.8,318.79 861,318.47 C860.211267,318.291289 859.408003,318.184188 858.6,318.15 C857.6,318.15 857.08,317.83 857.08,317.27 C857.08,316.71 857.48,316.55 858.84,316.55 C862.04,316.55 869.84,316.79 870.52,316.79 C871.2,316.79 880.68,316.55 883.52,316.55 C884.88,316.55 885.28,316.87 885.28,317.35 C885.28,317.99 884.56,318.15 883.76,318.15 C882.96,318.15 882.48,318.23 881.44,318.39 C879.36,318.79 878.56,319.83 878.44,322.71 C878.2,325.27 878.2,327.35 878.2,339.71 L878.2,353.79 C878.2,360.11 878.28,367.55 878.6,370.91 C878.76,372.99 879.24,374.43 881.6,374.99 C882.763027,375.202177 883.93902,375.335812 885.12,375.39 C886.48,375.39 886.8,375.71 886.8,376.19 C886.8,376.67 886.4,376.99 885.12,376.99 C879.68,376.99 871.12,376.75 870.4,376.75 C870,376.75 861.6,376.99 858.88,376.99 C857.6,376.99 856.96,376.83 856.96,376.19 C856.96,375.55 857.6,375.39 858.56,375.39 C859.36,375.31 860.16,375.23 861.04,375.07 C862.72,374.83 863.28,373.07 863.52,370.75 C863.84,367.39 864,361.63 864,353.75 L864.04,339.75 Z" id="Shape" stroke="#FFECCD" fill="#FFECCD"></path>
                    <path d="M903.16,375.91 C901.8,375.35 901.4,374.31 901.4,372.71 C901.337578,368.784078 901.497836,364.857775 901.88,360.95 C902.04,359.51 902.36,359.03 902.88,359.03 C903.4,359.03 903.52,359.75 903.6,360.39 C903.667511,361.225947 903.801265,362.055218 904,362.87 C905.36,369.43 911.36,373.19 917.6,373.19 C925.2,373.19 927.52,369.27 927.52,365.83 C927.52,362.39 926.88,359.67 920.08,355.03 L915.08,351.59 C905.32,344.71 902.6,339.11 902.6,332.07 C902.6,322.87 910.2,315.43 923,315.43 C926.08618,315.374917 929.169649,315.643044 932.2,316.23 C933.524854,316.487475 934.833707,316.821366 936.12,317.23 C936.92,317.47 937.12,317.71 937.12,318.35 C936.96,320.91 936.8,322.51 936.8,329.63 C936.8,331.07 936.56,331.63 935.92,331.63 C935.52,331.63 935.2,331.39 935.04,330.11 C934.906566,328.476353 934.414918,326.892152 933.6,325.47 C932.08,322.91 928.4,320.19 922.6,320.19 C916.04,320.19 913.6,323.87 913.6,327.55 C913.6,330.27 914.6,333.39 920,337.07 L924.08,339.79 C935.28,347.23 938.8,352.19 938.8,360.27 C938.870159,366.293877 935.608051,371.86408 930.32,374.75 C926.079886,377.143009 921.266699,378.332475 916.4,378.19 C910.52,378.15 906.33,377.35 903.16,375.91 Z" id="Shape" stroke="#FFECCD" fill="#FFECCD"></path>
                    <rect id="Rectangle-path" fill="#42309F" x="493.94" y="360.25" width="77.24" height="30.98"></rect>
                    <polygon id="Shape" fill="#42309F" points="639.19 381.58 639.19 360.25 704.82 360.25 704.82 350.81 708.21 350.81 708.21 339.33 712.72 339.33 712.72 350.81 716.1 350.81 716.1 360.25 721.25 360.25 726.81 388.22"></polygon>
                    <rect id="Rectangle-path" fill="#0D0A7F" x="884.73" y="284.23" width="108.24" height="24.76"></rect>
                    <rect id="Rectangle-path" fill="#1E1D4C" x="1418.19" y="95.31" width="105.43" height="49.45"></rect>
                    <rect id="Rectangle-path" fill="#1E1D4C" x="1400.46" y="176.47" width="140.88" height="503.81"></rect>
                    <rect id="Rectangle-path" fill="#1E1D4C" x="1405.59" y="149.42" width="130.62" height="21.46"></rect>
                    <rect id="Rectangle-path" fill="#422F86" x="1468.59" y="231.11" width="12.7" height="8.61"></rect>
                    <rect id="Rectangle-path" fill="#422F86" x="1508.21" y="231.11" width="15.07" height="8.61"></rect>
                    <rect id="Rectangle-path" fill="#422F86" x="1508.21" y="200.11" width="12.92" height="8.61"></rect>
                    <rect id="Rectangle-path" fill="#422F86" x="1424.23" y="307.77" width="19.38" height="6.46"></rect>
                    <rect id="Rectangle-path" fill="#422F86" x="1420.36" y="264.27" width="18.95" height="9.47"></rect>
                    <rect id="Rectangle-path" fill="#422F86" x="1474.94" y="269.01" width="20.78" height="4.74"></rect>
                    <rect id="Rectangle-path" fill="#422F86" x="1506.05" y="333.61" width="17.23" height="6.89"></rect>
                    <rect id="Rectangle-path" fill="#422F86" x="1474.94" y="349.97" width="14.32" height="11.2"></rect>
                    <rect id="Rectangle-path" fill="#422F86" x="1429.83" y="416.72" width="13.78" height="9.47"></rect>
                    <rect id="Rectangle-path" fill="#422F86" x="1472.03" y="428.78" width="10.07" height="15.07"></rect>
                    <rect id="Rectangle-path" fill="#422F86" x="1509.07" y="466.68" width="14.21" height="8.61"></rect>
                    <rect id="Rectangle-path" fill="#422F86" x="1469.88" y="566.15" width="18.52" height="11.2"></rect>
                    <rect id="Rectangle-path" fill="#1E1D4C" x="93.87" y="51.54" width="99" height="47.33"></rect>
                    <rect id="Rectangle-path" fill="#1E1D4C" x="67.62" y="92.79" width="151.5" height="29.25"></rect>
                    <rect id="Rectangle-path" fill="#1E1D4C" x="56.75" y="117.54" width="173.25" height="15"></rect>
                    <rect id="Rectangle-path" fill="#1E1D4C" x="56.75" y="182.29" width="173.25" height="643"></rect>
                    <rect id="Rectangle-path" fill="#422F86" x="56.75" y="204.84" width="173.25" height="3.25"></rect>
                    <rect id="Rectangle-path" fill="#422F86" x="56.75" y="236.07" width="173.25" height="3.25"></rect>
                    <rect id="Rectangle-path" fill="#422F86" x="56.75" y="267.29" width="173.25" height="3.25"></rect>
                    <rect id="Rectangle-path" fill="#422F86" x="56.75" y="298.52" width="173.25" height="3.25"></rect>
                    <rect id="Rectangle-path" fill="#422F86" x="56.75" y="329.74" width="173.25" height="3.25"></rect>
                    <rect id="Rectangle-path" fill="#422F86" x="56.75" y="360.96" width="173.25" height="3.25"></rect>
                    <rect id="Rectangle-path" fill="#422F86" x="56.75" y="392.19" width="173.25" height="3.25"></rect>
                    <rect id="Rectangle-path" fill="#422F86" x="56.75" y="423.41" width="173.25" height="3.25"></rect>
                    <rect id="Rectangle-path" fill="#422F86" x="56.75" y="454.63" width="173.25" height="3.25"></rect>
                    <rect id="Rectangle-path" fill="#422F86" x="56.75" y="485.86" width="173.25" height="3.25"></rect>
                    <rect id="Rectangle-path" fill="#422F86" x="56.75" y="517.08" width="173.25" height="3.25"></rect>
                    <rect id="Rectangle-path" fill="#422F86" x="56.75" y="548.31" width="173.25" height="3.25"></rect>
                    <rect id="Rectangle-path" fill="#422F86" x="56.75" y="579.53" width="173.25" height="3.25"></rect>
                    <rect id="Rectangle-path" fill="#422F86" x="56.75" y="610.75" width="173.25" height="3.25"></rect>
                    <rect id="Rectangle-path" fill="#422F86" x="56.75" y="641.98" width="173.25" height="3.25"></rect>
                    <rect id="Rectangle-path" fill="#422F86" x="56.75" y="673.2" width="173.25" height="3.25"></rect>
                    <rect id="Rectangle-path" fill="#422F86" x="56.75" y="704.42" width="173.25" height="3.25"></rect>
                    <rect id="Rectangle-path" fill="#422F86" x="56.75" y="735.65" width="173.25" height="3.25"></rect>
                    <rect id="Rectangle-path" fill="#422F86" x="56.75" y="766.87" width="173.25" height="3.25"></rect>
                    <rect id="Rectangle-path" fill="#422F86" x="56.75" y="798.09" width="173.25" height="3.25"></rect>
                    <rect id="Rectangle-path" fill="#422F86" transform="translate(77.005000, 504.755000) rotate(-90.000000) translate(-77.005000, -504.755000) " x="-243.83" y="503.13" width="641.67" height="3.25"></rect>
                    <rect id="Rectangle-path" fill="#422F86" transform="translate(201.505000, 504.755000) rotate(-90.000000) translate(-201.505000, -504.755000) " x="-119.33" y="503.13" width="641.67" height="3.25"></rect>
                    <rect id="Rectangle-path" fill="#422F86" x="85.25" y="343.66" width="9.88" height="9.88"></rect>
                    <rect id="Rectangle-path" fill="#422F86" x="85.37" y="217.92" width="9.88" height="9.88"></rect>
                    <rect id="Rectangle-path" fill="#422F86" x="169.62" y="217.92" width="9.88" height="9.88"></rect>
                    <rect id="Rectangle-path" fill="#422F86" x="142.62" y="280.79" width="9.88" height="9.88"></rect>
                    <rect id="Rectangle-path" fill="#422F86" x="85.37" y="249.35" width="9.88" height="9.88"></rect>
                    <rect id="Rectangle-path" fill="#422F86" x="169.62" y="249.35" width="9.88" height="9.88"></rect>
                    <rect id="Rectangle-path" fill="#422F86" x="142.62" y="249.35" width="9.88" height="9.88"></rect>
                    <rect id="Rectangle-path" fill="#422F86" x="105.69" y="249.35" width="9.88" height="9.88"></rect>
                    <rect id="Rectangle-path" fill="#422F86" x="85.25" y="312.22" width="9.88" height="9.88"></rect>
                    <rect id="Rectangle-path" fill="#422F86" x="169.62" y="312.22" width="9.88" height="9.88"></rect>
                    <rect id="Rectangle-path" fill="#422F86" x="127.31" y="312.22" width="9.88" height="9.88"></rect>
                    <rect id="Rectangle-path" fill="#422F86" x="105.16" y="375.1" width="9.88" height="9.88"></rect>
                    <rect id="Rectangle-path" fill="#422F86" x="141.66" y="375.1" width="9.88" height="9.88"></rect>
                    <rect id="Rectangle-path" fill="#422F86" x="170.77" y="375.1" width="9.88" height="9.88"></rect>
                    <rect id="Rectangle-path" fill="#422F86" x="105.16" y="469.4" width="9.88" height="9.88"></rect>
                    <rect id="Rectangle-path" fill="#422F86" x="141.66" y="469.4" width="9.88" height="9.88"></rect>
                    <rect id="Rectangle-path" fill="#422F86" x="170.77" y="469.4" width="9.88" height="9.88"></rect>
                    <rect id="Rectangle-path" fill="#422F86" x="127.04" y="406.53" width="9.88" height="9.88"></rect>
                    <rect id="Rectangle-path" fill="#422F86" x="84.91" y="437.97" width="9.88" height="9.88"></rect>
                    <rect id="Rectangle-path" fill="#422F86" x="169.16" y="437.97" width="9.88" height="9.88"></rect>
                    <rect id="Rectangle-path" fill="#422F86" x="142.16" y="437.97" width="9.88" height="9.88"></rect>
                    <rect id="Rectangle-path" fill="#422F86" x="105.23" y="437.97" width="9.88" height="9.88"></rect>
                    <rect id="Rectangle-path" fill="#1E1D4C" x="56.75" y="149.04" width="173.25" height="18.75"></rect>
                    <rect id="Rectangle-path" fill="#422F86" transform="translate(201.575000, 158.415000) rotate(-90.000000) translate(-201.575000, -158.415000) " x="192.2" y="156.86" width="18.75" height="3.11"></rect>
                    <polygon id="Shape" fill="#422F86" points="897.9 594.53 658.9 594.53 658.9 594.53 658.9 511.53 658.9 511.53 897.9 511.53 897.9 511.53 897.9 594.53"></polygon>
                    <polygon id="Shape" fill="#1E1D4C" points="913.4 609.53 643.4 609.53 643.4 609.53 643.4 530.53 643.4 530.53 913.4 530.53 913.4 530.53 913.4 609.53"></polygon>
                    <rect id="Rectangle-path" fill="#422F86" x="632.11" y="580.39" width="292.6" height="16.59" rx="3.67"></rect>
                    <path d="M643.4,609.53 L643.4,848.99 L725.82,848.99 L725.82,682.71 C725.880495,652.976371 749.966382,628.886013 779.7,628.82 C809.437523,628.880515 833.529485,652.972477 833.59,682.71 L833.59,848.99 L913.4,848.99 L913.4,609.53 L643.4,609.53 Z" id="Shape" fill="#1E1D4C"></path>
                    <rect id="Rectangle-path" fill="#1E1D4C" x="352.71" y="279.11" width="94.5" height="18.75"></rect>
                    <rect id="Rectangle-path" fill="#1E1D4C" x="369.96" y="255.11" width="60" height="33.38"></rect>
                    <rect id="Rectangle-path" fill="#1E1D4C" x="374.83" y="162.86" width="7.5" height="99.75"></rect>
                    <rect id="Rectangle-path" fill="#1E1D4C" x="369.96" y="159.61" width="17.37" height="4.5" rx="1.08"></rect>
                    <polygon id="Shape" fill="#1E1D4C" points="376.08 19.86 376.08 159.61 378.65 159.61"></polygon>
                    <rect id="Rectangle-path" fill="#1E1D4C" x="331.33" y="305.36" width="137.25" height="673.09"></rect>
                    <rect id="Rectangle-path" fill="#422F86" x="341.92" y="338.35" width="8.49" height="8.49"></rect>
                    <rect id="Rectangle-path" fill="#422F86" x="422.87" y="328.17" width="11.6" height="5.66"></rect>
                    <rect id="Rectangle-path" fill="#422F86" x="341.92" y="386.47" width="8.49" height="6.23"></rect>
                    <rect id="Rectangle-path" fill="#422F86" x="393.43" y="428.92" width="8.35" height="5.66"></rect>
                    <rect id="Rectangle-path" fill="#422F86" x="419.47" y="428.92" width="9.91" height="5.66"></rect>
                    <rect id="Rectangle-path" fill="#422F86" x="448.06" y="430.05" width="15" height="5.94"></rect>
                    <rect id="Rectangle-path" fill="#422F86" x="419.47" y="408.54" width="8.49" height="5.66"></rect>
                    <rect id="Rectangle-path" fill="#422F86" x="417.21" y="384.77" width="9.34" height="4.81"></rect>
                    <rect id="Rectangle-path" fill="#422F86" x="364.28" y="479.3" width="12.74" height="4.25"></rect>
                    <rect id="Rectangle-path" fill="#422F86" x="361.74" y="450.71" width="12.45" height="6.23"></rect>
                    <rect id="Rectangle-path" fill="#422F86" x="397.61" y="453.82" width="13.66" height="3.11"></rect>
                    <rect id="Rectangle-path" fill="#422F86" x="445.79" y="481.42" width="9.76" height="7.22"></rect>
                    <rect id="Rectangle-path" fill="#422F86" x="418.06" y="496.28" width="11.32" height="4.53"></rect>
                    <rect id="Rectangle-path" fill="#422F86" x="397.61" y="507.03" width="9.41" height="7.36"></rect>
                    <rect id="Rectangle-path" fill="#422F86" x="341.92" y="516.37" width="8.49" height="6.51"></rect>
                    <rect id="Rectangle-path" fill="#422F86" x="367.96" y="550.9" width="9.06" height="6.23"></rect>
                    <rect id="Rectangle-path" fill="#422F86" x="395.7" y="558.82" width="6.62" height="9.91"></rect>
                    <rect id="Rectangle-path" fill="#422F86" x="420.04" y="583.73" width="9.34" height="5.66"></rect>
                    <rect id="Rectangle-path" fill="#422F86" x="448.06" y="550.9" width="9.91" height="6.23"></rect>
                    <rect id="Rectangle-path" fill="#422F86" x="445.79" y="576.09" width="12.17" height="7.64"></rect>
                    <rect id="Rectangle-path" fill="#422F86" x="341.08" y="633.26" width="12.17" height="6.23"></rect>
                    <rect id="Rectangle-path" fill="#422F86" x="394.28" y="649.1" width="12.17" height="7.36"></rect>
                    <rect id="Rectangle-path" fill="#422F86" x="450.04" y="655.33" width="8.77" height="8.77"></rect>
                    <rect id="Rectangle-path" fill="#422F86" x="446.92" y="720.71" width="7.5" height="7.5"></rect>
                    <rect id="Rectangle-path" fill="#422F86" x="421.17" y="736.84" width="12.17" height="3.96"></rect>
                    <rect id="Rectangle-path" fill="#422F86" x="367.96" y="717.03" width="9.91" height="5.94"></rect>
                    <rect id="Rectangle-path" fill="#422F86" x="342.21" y="738.82" width="11.04" height="6.31"></rect>
                    <rect id="Rectangle-path" fill="#422F86" x="342.21" y="764.42" width="12.17" height="6.38"></rect>
                    <rect id="Rectangle-path" fill="#422F86" x="421.17" y="759.48" width="12.17" height="4.94"></rect>
                    <path d="M1049.63,451.68 L1055.78,451.43 L1055.78,155.18 L1046.13,155.18 L1026.13,419.18 C1026.13,419.18 1012.13,419.18 1012.13,423.68 C1012.13,428.18 1020.13,432.18 1020.13,432.18 L1020.13,450.68 C1020.13,450.68 1023,450 1022.88,450.68 C1013.63,501.68 985.13,568.43 985.13,568.43 L964.88,568.43 L964.88,615.93 L867.88,756.93 L920.38,756.93 L994.63,693.68 L993.38,650.93 C993.38,650.93 1014.38,640.43 1032.13,638.43 C1049.88,636.43 1055.78,636.18 1055.78,636.18 L1055.78,597.68 L1045.63,597.53 L1045.63,574.58 L1055.78,574.43 L1055.78,568.43 C1055.78,568.43 1035.43,569.43 1027.78,569.25 C1025.78,569.25 1024.1,567.25 1024.78,565.43 C1037.63,533.18 1049.63,451.68 1049.63,451.68 Z M1037.46,574.68 L1037.46,597.4 L1015.38,597.09 L1022.63,574.91 L1037.46,574.68 Z" id="Shape" fill="#FFCE70"></path>
                    <path d="M1055.78,47.85 L1050.78,101.98 C1047.28,105.11 1044.58,111.43 1043.53,119.19 L1040.12,119.19 L1040.12,133.85 L1033.12,133.85 L1033.12,155.19 L1055.78,155.19 L1055.78,47.85 Z" id="Shape" fill="#FFCE70"></path>
                    <path d="M1086.69,565.43 C1087.42,567.27 1085.69,569.21 1083.69,569.25 C1076.09,569.42 1055.69,568.43 1055.69,568.43 L1055.69,574.43 L1065.85,574.58 L1065.85,597.53 L1055.69,597.68 L1055.69,636.18 C1055.69,636.18 1061.6,636.43 1079.35,638.43 C1097.1,640.43 1118.1,650.93 1118.1,650.93 L1116.85,693.68 L1191.1,756.93 L1243.6,756.93 L1146.6,615.93 L1146.6,568.43 L1126.35,568.43 C1126.35,568.43 1097.85,501.68 1088.6,450.68 C1088.48,450 1091.35,450.68 1091.35,450.68 L1091.35,432.18 C1091.35,432.18 1099.35,428.18 1099.35,423.68 C1099.35,419.18 1085.35,419.18 1085.35,419.18 L1065.35,155.18 L1055.69,155.18 L1055.69,451.43 L1061.85,451.68 C1061.85,451.68 1073.94,533.18 1086.69,565.43 Z M1088.94,574.93 L1096.19,597.11 L1074.11,597.42 L1074.11,574.7 L1088.94,574.93 Z" id="Shape" fill="#FFA079"></path>
                    <path d="M1056.07,47.85 L1061.07,101.98 C1064.57,105.11 1067.26,111.43 1068.32,119.19 L1071.73,119.19 L1071.73,133.85 L1078.73,133.85 L1078.73,155.19 L1056.07,155.19 L1056.07,47.85 Z" id="Shape" fill="#FFA079"></path>
                    <rect id="Rectangle-path" fill="#42309F" x="1291.01" y="386.31" width="147.01" height="496.35"></rect>
                    <rect id="Rectangle-path" fill="#427CFF" x="1294.75" y="471.62" width="27.54" height="27.54"></rect>
                    <rect id="Rectangle-path" fill="#427CFF" x="1332.09" y="471.62" width="27.54" height="27.54"></rect>
                    <rect id="Rectangle-path" fill="#427CFF" x="1369.42" y="471.62" width="27.54" height="27.54"></rect>
                    <rect id="Rectangle-path" fill="#427CFF" x="1406.75" y="471.62" width="27.54" height="27.54"></rect>
                    <rect id="Rectangle-path" fill="#427CFF" x="1294.75" y="523.62" width="27.54" height="27.54"></rect>
                    <rect id="Rectangle-path" fill="#427CFF" x="1332.09" y="523.62" width="27.54" height="27.54"></rect>
                    <rect id="Rectangle-path" fill="#427CFF" x="1369.42" y="523.62" width="27.54" height="27.54"></rect>
                    <rect id="Rectangle-path" fill="#427CFF" x="1406.75" y="523.62" width="27.54" height="27.54"></rect>
                    <rect id="Rectangle-path" fill="#427CFF" x="1294.75" y="575.62" width="27.54" height="27.54"></rect>
                    <rect id="Rectangle-path" fill="#427CFF" x="1332.09" y="575.62" width="27.54" height="27.54"></rect>
                    <rect id="Rectangle-path" fill="#427CFF" x="1369.42" y="575.62" width="27.54" height="27.54"></rect>
                    <rect id="Rectangle-path" fill="#427CFF" x="1406.75" y="575.62" width="27.54" height="27.54"></rect>
                    <rect id="Rectangle-path" fill="#427CFF" x="1294.75" y="627.62" width="27.54" height="27.54"></rect>
                    <rect id="Rectangle-path" fill="#427CFF" x="1332.09" y="627.62" width="27.54" height="27.54"></rect>
                    <rect id="Rectangle-path" fill="#427CFF" x="1369.42" y="627.62" width="27.54" height="27.54"></rect>
                    <rect id="Rectangle-path" fill="#427CFF" x="1406.75" y="627.62" width="27.54" height="27.54"></rect>
                    <rect id="Rectangle-path" fill="#427CFF" x="1411.55" y="729.53" width="12" height="30.5"></rect>
                    <rect id="Rectangle-path" fill="#427CFF" x="1385.8" y="729.53" width="12" height="30.5"></rect>
                    <rect id="Rectangle-path" fill="#427CFF" x="1360.04" y="729.53" width="12" height="30.5"></rect>
                    <rect id="Rectangle-path" fill="#427CFF" x="1334.28" y="729.53" width="12" height="30.5"></rect>
                    <rect id="Rectangle-path" fill="#427CFF" x="1308.52" y="729.53" width="12" height="30.5"></rect>
                    <rect id="Rectangle-path" fill="#427CFF" x="1282.89" y="381.53" width="159" height="10.5"></rect>
                    <polygon id="Shape" fill="#42309F" points="721.38 363.32 716.1 363.32 716.1 352.5 712.72 352.5 712.72 339.33 708.21 339.33 708.21 352.5 704.82 352.5 704.82 363.32 638.53 363.32 639.03 387.78 633.61 387.78 633.61 398.13 633.61 495.67 577.38 495.67 577.38 398.13 577.38 387.78 571.96 387.78 572.46 363.32 506.17 363.32 506.17 352.5 502.78 352.5 502.78 339.33 498.27 339.33 498.27 352.5 494.89 352.5 494.89 363.32 489.61 363.32 483.76 398.13 483.76 825.29 577.38 825.29 633.61 825.29 636.99 825.29 727.23 825.29 727.23 398.13"></polygon>
                    <path d="M515.86,574.74 C512.08,574.74 509.02,576.74 509.02,579.23 L509.02,616.23 L522.69,616.23 L522.69,579.23 C522.69,576.75 519.63,574.74 515.86,574.74 Z" id="Shape" fill="#427CFF"></path>
                    <path d="M542.33,574.74 C538.56,574.74 535.5,576.74 535.5,579.23 L535.5,616.23 L549.17,616.23 L549.17,579.23 C549.15,576.75 546.09,574.74 542.33,574.74 Z" id="Shape" fill="#427CFF"></path>
                    <path d="M668.85,574.74 C665.08,574.74 662.02,576.74 662.02,579.23 L662.02,616.23 L675.69,616.23 L675.69,579.23 C675.69,576.75 672.63,574.74 668.85,574.74 Z" id="Shape" fill="#427CFF"></path>
                    <path d="M695.33,574.74 C691.55,574.74 688.49,576.74 688.49,579.23 L688.49,616.23 L702.16,616.23 L702.16,579.23 C702.14,576.75 699.08,574.74 695.33,574.74 Z" id="Shape" fill="#427CFF"></path>
                    <path d="M515.86,402.05 C512.08,402.05 509.02,405.86 509.02,410.56 L509.02,480.56 L522.69,480.56 L522.69,410.56 C522.69,405.86 519.63,402.05 515.86,402.05 Z" id="Shape" fill="#427CFF"></path>
                    <path d="M542.33,402.05 C538.56,402.05 535.5,405.86 535.5,410.56 L535.5,480.56 L549.17,480.56 L549.17,410.56 C549.15,405.86 546.09,402.05 542.33,402.05 Z" id="Shape" fill="#427CFF"></path>
                    <path d="M667.62,402.05 C663.85,402.05 660.79,405.86 660.79,410.56 L660.79,480.56 L674.46,480.56 L674.46,410.56 C674.46,405.86 671.4,402.05 667.62,402.05 Z" id="Shape" fill="#427CFF"></path>
                    <path d="M694.08,402.05 C690.3,402.05 687.24,405.86 687.24,410.56 L687.24,480.56 L700.91,480.56 L700.91,410.56 C700.91,405.86 697.85,402.05 694.08,402.05 Z" id="Shape" fill="#427CFF"></path>
                    <path d="M515.86,706.99 C512.08,706.99 509.02,708.52 509.02,710.4 L509.02,738.4 L522.69,738.4 L522.69,710.4 C522.69,708.56 519.63,706.99 515.86,706.99 Z" id="Shape" fill="#427CFF"></path>
                    <path d="M532.61,706.99 C528.83,706.99 525.77,708.52 525.77,710.4 L525.77,738.4 L539.44,738.4 L539.44,710.4 C539.44,708.56 536.38,706.99 532.61,706.99 Z" id="Shape" fill="#427CFF"></path>
                    <path d="M597.12,706.99 C593.34,706.99 590.28,708.52 590.28,710.4 L590.28,738.4 L603.96,738.4 L603.96,710.4 C603.96,708.56 600.9,706.99 597.12,706.99 Z" id="Shape" fill="#427CFF"></path>
                    <path d="M613.87,706.99 C610.09,706.99 607.03,708.52 607.03,710.4 L607.03,738.4 L620.71,738.4 L620.71,710.4 C620.71,708.56 617.64,706.99 613.87,706.99 Z" id="Shape" fill="#427CFF"></path>
                    <path d="M675.69,706.99 C671.91,706.99 668.85,708.52 668.85,710.4 L668.85,738.4 L682.52,738.4 L682.52,710.4 C682.52,708.56 679.46,706.99 675.69,706.99 Z" id="Shape" fill="#427CFF"></path>
                    <path d="M692.44,706.99 C688.66,706.99 685.6,708.52 685.6,710.4 L685.6,738.4 L699.27,738.4 L699.27,710.4 C699.27,708.56 696.21,706.99 692.44,706.99 Z" id="Shape" fill="#427CFF"></path>
                    <path d="M605.11,558.56 C591.302881,558.56 580.11,569.752881 580.11,583.56 C580.11,597.367119 591.302881,608.56 605.11,608.56 C618.917119,608.56 630.11,597.367119 630.11,583.56 C630.11,569.752881 618.917119,558.56 605.11,558.56 Z M605.11,601.46 C595.235149,601.46 587.23,593.454851 587.23,583.58 C587.23,573.705149 595.235149,565.7 605.11,565.7 C614.984851,565.7 622.99,573.705149 622.99,583.58 C622.99,593.454851 614.984851,601.46 605.11,601.46 Z" id="Shape" fill="#427CFF"></path>
                    <path d="M605.11,568.99 C599.22103,568.99 593.911925,572.53743 591.658314,577.978129 C589.404703,583.418828 590.650394,589.681344 594.814525,593.845475 C598.978656,598.009606 605.241172,599.255297 610.681871,597.001686 C616.12257,594.748075 619.67,589.43897 619.67,583.55 C619.67,575.508734 613.151266,568.99 605.11,568.99 Z M605,592.59 C601.293309,592.594044 597.949541,590.363766 596.529183,586.940002 C595.108824,583.516238 595.891879,579.573935 598.512907,576.952907 C601.133935,574.331879 605.076238,573.548824 608.500002,574.969183 C611.923766,576.389541 614.154044,579.733309 614.15,583.44 C614.15531,585.871115 613.193958,588.204621 611.477712,589.926494 C609.761466,591.648367 607.431119,592.617352 605,592.62 L605,592.59 Z" id="Shape" fill="#427CFF"></path>
                    <circle id="Oval" fill="#427CFF" cx="605.11" cy="583.58" r="3.49"></circle>
                    <polygon id="Shape" fill="#19174A" points="572.7 670.6 572.7 628.3 503.75 628.3 503.75 670.6 465.82 670.6 465.82 614.15 217.59 614.15 217.59 500.8 0 500.8 0 873.17 217.59 873.17 217.59 873.94 448.58 873.94 448.58 869.51 610.63 869.51 610.63 670.6"></polygon>
                    <path d="M1.65,714.84 L2.54,1180.22 C7.96,1181.29333 13.51,1182.29333 19.19,1183.22 C270.963333,1225.46 799.92,1141.46 1606.06,931.22 L1606.06,714.84 C1606.06,714.84 1483.83,674.41 1316.76,681.56 C1172.82,687.72 998.76,741.64 803.86,741.31 C695.99,741.14 462.79,673.21 365.86,673.2 C123.6,673.18 3.48,712.82 1.65,714.84 Z" id="Shape" fill="#030645"></path>
                    <polygon id="Shape" fill="#030645" points="1.39 827.32 1.39 452.01 110.86 452.01 110.86 568.84 150.41 568.84 150.41 543.08 161.22 532.27 161.22 521.92 170.65 521.92 170.65 532.96 179.85 542.16 179.85 567.91 247.46 567.91 247.46 588.15 267.24 607.93 273.9 614.6 273.9 620.35 245.62 620.35 245.62 681.06 383.6 681.06 383.6 475.01 418.56 440.05 484.79 440.05 506.1 472.66 506.1 562.4 506.1 624.95 506.1 809.39 506.1 907.35 1.39 907.35"></polygon>
                    <g id="Group" opacity="0.25" transform="translate(41.000000, 484.000000)" fill="#4E78B2">
                        <rect id="Rectangle-path" x="0.86" y="0.9" width="14.49" height="37.26"></rect>
                        <rect id="Rectangle-path" x="30.53" y="0.9" width="14.49" height="37.26"></rect>
                        <rect id="Rectangle-path" x="380.32" y="0.9" width="14.49" height="37.26"></rect>
                        <rect id="Rectangle-path" x="409.29" y="0.9" width="14.49" height="37.26"></rect>
                        <rect id="Rectangle-path" x="117.2" y="101.49" width="14.49" height="37.26"></rect>
                    </g>
                    <polygon id="Shape" fill="#030645" points="1606.06 866.21 1109.83 866.21 1109.83 840.07 922.05 840.07 922.05 740.38 981.09 740.38 981.09 623.26 1100.15 623.26 1100.15 464.53 1112.73 464.53 1112.73 401.6 1188.23 401.6 1188.23 464.53 1237.6 464.53 1237.6 624.22 1237.6 707.47 1362.46 707.47 1362.46 792.64 1491.2 792.64 1491.2 709.4 1606.06 709.4"></polygon>
                    <path d="M1148.55,381.99 C1134.57517,381.942323 1122.66868,392.126622 1120.55,405.94 L1176.44,405.94 C1174.30397,392.181023 1162.47376,382.022054 1148.55,381.99 Z" id="Shape" fill="#FE7171"></path>
                    <polygon id="Shape" fill="#FE7171" points="1150.48 353.2 1144.19 353.2 1143.37 382 1148.55 382 1150.48 382"></polygon>
                    <rect id="Rectangle-path" fill="#477BB5" opacity="0.21" x="1137.9" y="433.54" width="12.58" height="30.99"></rect>
                    <rect id="Rectangle-path" fill="#FFCEAB" x="1165.97" y="433.54" width="12.58" height="30.99"></rect>
                    <rect id="Rectangle-path" fill="#477BB5" opacity="0.21" x="1141.77" y="569.05" width="13.55" height="37.75"></rect>
                    <rect id="Rectangle-path" fill="#477BB5" opacity="0.21" x="1171.78" y="569.05" width="13.55" height="37.75"></rect>
                    <rect id="Rectangle-path" fill="#477BB5" opacity="0.21" x="1201.78" y="569.05" width="13.55" height="37.75"></rect>
                    <polygon id="Shape" fill="#030645" points="1576.17 563.04 1576.17 525.71 1560.88 525.71 1560.88 541.87 1525.95 493.52 1492.47 538.22 1492.47 461.33 1420.05 461.33 1420.05 493.52 1397.52 493.52 1397.52 590.09 1364.52 590.09 1364.52 903.14 1397.52 903.14 1429.7 903.14 1486.84 903.14 1486.84 900.72 1606.75 900.72 1606.75 605.38"></polygon>
                    <rect id="Rectangle-path" fill="#477BB5" opacity="0.21" x="1438.46" y="521.66" width="18.55" height="36.77"></rect>
                    <rect id="Rectangle-path" fill="#477BB5" opacity="0.21" x="1500.35" y="609.93" width="19" height="40.06"></rect>
                    <rect id="Rectangle-path" fill="#477BB5" opacity="0.21" x="1527.67" y="609.93" width="19" height="40.06"></rect>
                </g>
            </g>
        </g>
    </g>
</svg>