<?xml version="1.0" encoding="UTF-8"?>
<svg width="1600px" height="403px" viewBox="0 0 1600 403" version="1.1" xmlns="http://www.w3.org/2000/svg" xmlns:xlink="http://www.w3.org/1999/xlink">
    <!-- Generator: Sketch 49.2 (51160) - http://www.bohemiancoding.com/sketch -->
    <title>Ecranbase-blueclaire@3x</title>
    <desc>Created with Sketch.</desc>
    <defs></defs>
    <g id="Welcome" stroke="none" stroke-width="1" fill="none" fill-rule="evenodd">
        <g id="Prototype" transform="translate(0.000000, -6134.000000)">
            <g id="Ecranbase-02" transform="translate(0.000000, 5637.000000)"></g>
            <g id="Ecranbase-01" transform="translate(-79.000000, 5637.000000)">
                <g id="用水量">
                    <g id="Group-7" transform="translate(79.000000, 0.000000)"></g>
                    <g id="水波纹" transform="translate(0.000000, 220.000000)" fill="#417BFC">
                        <path d="M47.0127151,527.689331 C80.2054234,467.918497 136.377298,438.033081 215.52834,438.033081 C334.254903,438.033081 319.894091,354.640844 440.254903,338.376831 C560.615714,322.112818 693.49709,371.141695 792.145528,392.962007 C890.793965,414.78232 953.192403,295.837007 1090.23928,283.235445 C1227.28615,270.633882 1255.22365,331.408081 1422.84865,366.759643 C1595.36263,403.142275 1720.2066,194.339259 1735.18459,283.235445 C1741.02707,317.911236 1722.23019,493.801861 1678.79397,810.90732 L47.0127151,799.90732 L47.0127151,527.689331 Z" id="蓝色"></path>
                    </g>
                </g>
            </g>
        </g>
    </g>
</svg>