<?xml version="1.0" encoding="UTF-8"?>
<svg width="1600px" height="900px" viewBox="0 0 1600 900" version="1.1" xmlns="http://www.w3.org/2000/svg" xmlns:xlink="http://www.w3.org/1999/xlink">
    <!-- Generator: Sketch 49.2 (51160) - http://www.bohemiancoding.com/sketch -->
    <title>Ecranbase-background-detail@3x</title>
    <desc>Created with Sketch.</desc>
    <defs></defs>
    <g id="Welcome" stroke="none" stroke-width="1" fill="none" fill-rule="evenodd">
        <g id="Prototype" transform="translate(0.000000, -5637.000000)">
            <g id="Ecranbase-02" transform="translate(0.000000, 5637.000000)"></g>
            <g id="Ecranbase-01" transform="translate(-79.000000, 5637.000000)">
                <g id="用水量">
                    <g id="Group-7" transform="translate(79.000000, 0.000000)" fill="#2C49B0">
                        <rect id="Rectangle-2-Copy" x="0" y="0" width="1600" height="900"></rect>
                    </g>
                    <g id="水波纹" transform="translate(0.000000, 220.000000)">
                        <path d="M280.546875,319.898438 C453.52414,314.998709 478.171875,199.382813 679.359375,253.710938 C880.546875,308.039063 831.695313,122.40625 978.070313,88.0625 C1124.44531,53.71875 1051.21935,188.349549 1227.37624,223.604284 C1423.05593,199.393347 1375.01474,100.658972 1539.61843,62.6355342 C1649.35421,37.2865759 1714.73182,61.9532426 1735.75124,136.635534 L1721.86843,808.768347 L23.7903004,799.768347 C-7.93010015,518.435175 -7.93010015,349.931664 23.7903004,294.257813 C71.3709013,210.747035 107.56961,324.798166 280.546875,319.898438 Z" id="紫色" fill="#42309F"></path>
                        <path d="M45.3046875,422.78125 C79.984375,368.050784 103.399075,321.200349 287.960938,307.890625 C472.5228,294.580901 600.921875,396.472375 689.265625,324.851563 C777.609375,253.23075 821.328125,150.636722 946.476563,202.429688 C1071.625,254.222653 1264.95947,283.047664 1456.2251,220.313289 C1637.10932,160.983972 1770.8705,352.911 1799.3501,403.239073 C1800.98461,406.127528 1774.36574,345.554158 1775.49072,347.875789 C1789.30843,376.391414 1757.61572,529.770321 1680.4126,808.012511 L81.4125967,800.012511 C34.2208656,585.011981 22.1848958,459.268227 45.3046875,422.78125 Z" id="深蓝色" fill="#1D2375"></path>
                        <path d="M47.0127151,527.689331 C80.2054234,467.918497 136.377298,438.033081 215.52834,438.033081 C334.254903,438.033081 319.894091,354.640844 440.254903,338.376831 C560.615714,322.112818 693.49709,371.141695 792.145528,392.962007 C890.793965,414.78232 953.192403,295.837007 1090.23928,283.235445 C1227.28615,270.633882 1255.22365,331.408081 1422.84865,366.759643 C1595.36263,403.142275 1720.2066,194.339259 1735.18459,283.235445 C1741.02707,317.911236 1722.23019,493.801861 1678.79397,810.90732 L47.0127151,799.90732 L47.0127151,527.689331 Z" id="蓝色" fill="#417BFC"></path>
                    </g>
                </g>
                <ellipse id="Oval-3" fill="#417BFC" cx="471" cy="81.5" rx="12" ry="17.5"></ellipse>
            </g>
            <g id="03" transform="translate(0.000000, 4356.000000)">
                <g id="background"></g>
                <g id="carre" transform="translate(215.000000, 1.000000)" fill="#1D2375">
                    <g id="水龙头" transform="translate(139.000000, 1135.000000)">
                        <rect id="Rectangle-10" transform="translate(39.811966, 113.250000) rotate(90.000000) translate(-39.811966, -113.250000) " x="-18.4380342" y="92.4380342" width="116.5" height="41.6239316" rx="7"></rect>
                    </g>
                </g>
            </g>
        </g>
    </g>
</svg>