<?xml version="1.0" encoding="UTF-8"?>
<svg width="335px" height="335px" viewBox="0 0 335 335" version="1.1" xmlns="http://www.w3.org/2000/svg" xmlns:xlink="http://www.w3.org/1999/xlink">
    <!-- Generator: Sketch 49.2 (51160) - http://www.bohemiancoding.com/sketch -->
    <title>Rond@3x</title>
    <desc>Created with Sketch.</desc>
    <defs></defs>
    <g id="Welcome" stroke="none" stroke-width="1" fill="none" fill-rule="evenodd">
        <g id="Prototype" transform="translate(-868.000000, -5857.000000)">
            <g id="Ecranbase-02" transform="translate(0.000000, 5637.000000)"></g>
            <g id="Ecranbase-01" transform="translate(-79.000000, 5637.000000)">
                <g id="用水量">
                    <g id="Group-7" transform="translate(79.000000, 0.000000)"></g>
                    <g id="水波纹" transform="translate(0.000000, 218.000000)">
                        <g id="饼状图" transform="translate(947.000000, 0.000000)">
                            <path d="M167.5,337 C74.9923044,337 0,262.007696 0,169.5 C0,76.9923044 74.9923044,2 167.5,2 C260.007696,2 335,76.9923044 335,169.5 C335,262.007696 260.007696,337 167.5,337 Z M168.045603,319.540717 C250.609474,319.540717 317.540717,252.609474 317.540717,170.045603 C317.540717,87.481731 250.609474,20.5504886 168.045603,20.5504886 C85.481731,20.5504886 18.5504886,87.481731 18.5504886,170.045603 C18.5504886,252.609474 85.481731,319.540717 168.045603,319.540717 Z" id="Combined-Shape" fill="#FE7171"></path>
                            <path d="M205.199656,6.25965783 L196.684144,23.2906415 C187.415194,21.4924206 177.840601,20.5504886 168.046008,20.5504886 C85.481937,20.5504886 18.5505333,87.481731 18.5505333,170.045603 C18.5505333,252.609474 85.481937,319.540717 168.046008,319.540717 C250.610078,319.540717 317.541482,252.609474 317.541482,170.045603 L334.999193,170.045603 C334.704957,262.302381 259.82576,337 167.5,337 C74.9923044,337 0,262.007696 0,169.5 C0,76.9923044 74.9923044,2 167.5,2 C180.463218,2 193.08249,3.47260614 205.199656,6.25965783 Z" id="Combined-Shape" fill="#FFCE70"></path>
                            <circle id="Oval-4-Copy" fill="#FFA079" cx="168" cy="170" r="133"></circle>
                        </g>
                    </g>
                </g>
            </g>
        </g>
    </g>
</svg>